<?xml version="1.0" encoding="UTF-8" standalone="no"?>
<!DOCTYPE svg PUBLIC "-//W3C//DTD SVG 1.1//EN" "http://www.w3.org/Graphics/SVG/1.1/DTD/svg11.dtd">
<!-- Created with Vectornator (http://vectornator.io/) -->
<svg height="100%" stroke-miterlimit="10" style="fill-rule:nonzero;clip-rule:evenodd;stroke-linecap:round;stroke-linejoin:round;" version="1.1" viewBox="0 0 1000 200" width="100%" xml:space="preserve" xmlns="http://www.w3.org/2000/svg" xmlns:xlink="http://www.w3.org/1999/xlink">
<defs>
<path d="M92.5 82.337C92.5 78.1949 95.8579 74.837 100 74.837C104.142 74.837 107.5 78.1949 107.5 82.337C107.5 86.4792 104.142 89.837 100 89.837C95.8579 89.837 92.5 86.4792 92.5 82.337Z" id="Fill"/>
<path d="M292.5 82.337C292.5 78.1949 295.858 74.837 300 74.837C304.142 74.837 307.5 78.1949 307.5 82.337C307.5 86.4792 304.142 89.837 300 89.837C295.858 89.837 292.5 86.4792 292.5 82.337Z" id="Fill_2"/>
<path d="M492.5 82.337C492.5 78.1949 495.858 74.837 500 74.837C504.142 74.837 507.5 78.1949 507.5 82.337C507.5 86.4792 504.142 89.837 500 89.837C495.858 89.837 492.5 86.4792 492.5 82.337Z" id="Fill_3"/>
<path d="M692.5 82.337C692.5 78.1949 695.858 74.837 700 74.837C704.142 74.837 707.5 78.1949 707.5 82.337C707.5 86.4792 704.142 89.837 700 89.837C695.858 89.837 692.5 86.4792 692.5 82.337Z" id="Fill_4"/>
<path d="M892.5 82.337C892.5 78.1949 895.858 74.837 900 74.837C904.142 74.837 907.5 78.1949 907.5 82.337C907.5 86.4792 904.142 89.837 900 89.837C895.858 89.837 892.5 86.4792 892.5 82.337Z" id="Fill_5"/>
</defs>
<g id="Layer-1">
<path d="M100 83.3641L900 81" fill="none" opacity="1" stroke="#000000" stroke-linecap="butt" stroke-linejoin="round" stroke-opacity="0.8" stroke-width="7.04414"/>
<g fill="#000000" opacity="1" stroke="none">
<path d="M69.7359 119.231C70.5259 119.231 71.2337 119.098 71.8592 118.834C72.4847 118.569 72.9796 118.2 73.3437 117.727C73.7079 117.254 73.89 116.709 73.89 116.092L73.89 116.074C73.89 115.327 73.6556 114.73 73.1867 114.285C72.7179 113.84 71.984 113.496 70.9852 113.253L69.3664 112.863C68.7617 112.716 68.3233 112.525 68.0511 112.289C67.7789 112.053 67.6427 111.757 67.6427 111.402L67.6427 111.385C67.6427 111.076 67.7337 110.805 67.9156 110.573C68.0975 110.341 68.3481 110.159 68.6674 110.028C68.9868 109.897 69.354 109.832 69.7691 109.832C70.4056 109.832 70.9189 109.966 71.3091 110.236C71.6993 110.506 71.9444 110.858 72.0443 111.293L72.0466 111.309L73.7051 111.309L73.7028 111.279C73.6338 110.708 73.429 110.207 73.0885 109.777C72.7479 109.347 72.295 109.013 71.73 108.774C71.1649 108.535 70.5137 108.416 69.7765 108.416C69.0375 108.416 68.3752 108.547 67.7897 108.811C67.2042 109.075 66.7436 109.437 66.4079 109.896C66.0723 110.355 65.9045 110.878 65.9045 111.463L65.9045 111.473C65.9045 112.222 66.1363 112.824 66.6001 113.278C67.0639 113.732 67.7842 114.075 68.7611 114.308L70.3873 114.699C71.0215 114.852 71.4741 115.05 71.7451 115.294C72.0162 115.538 72.1517 115.839 72.1517 116.199L72.1517 116.216C72.1517 116.532 72.0514 116.81 71.8508 117.049C71.6502 117.289 71.3735 117.476 71.0206 117.612C70.6677 117.747 70.2552 117.815 69.7829 117.815C69.1078 117.815 68.5657 117.679 68.1567 117.409C67.7478 117.138 67.4763 116.776 67.3423 116.323L67.3377 116.3L65.6086 116.3L65.6109 116.32C65.6775 116.906 65.8884 117.417 66.2436 117.853C66.5988 118.288 67.0735 118.627 67.6679 118.869C68.2623 119.11 68.9516 119.231 69.7359 119.231Z"/>
<path d="M79.4316 119.149C79.6009 119.149 79.7673 119.139 79.9308 119.121C80.0943 119.102 80.2505 119.081 80.3995 119.058L80.3995 117.629C80.2632 117.64 80.143 117.65 80.0386 117.657C79.9342 117.664 79.8126 117.668 79.6736 117.668C79.1483 117.668 78.7684 117.542 78.5341 117.29C78.2997 117.039 78.1825 116.613 78.1825 116.013L78.1825 110.01L80.3995 110.01L80.3995 108.603L78.1825 108.603L78.1825 105.874L76.4247 105.874L76.4247 108.603L74.806 108.603L74.806 110.01L76.4247 110.01L76.4247 116.343C76.4247 117.338 76.6645 118.054 77.1441 118.492C77.6238 118.93 78.3863 119.149 79.4316 119.149Z"/>
<path d="M82.3186 119.043L84.0178 119.043L84.0178 112.579C84.0178 112.065 84.1297 111.618 84.3535 111.238C84.5773 110.857 84.8871 110.562 85.283 110.352C85.6788 110.142 86.1346 110.037 86.6504 110.037C86.8439 110.037 87.0236 110.045 87.1896 110.062C87.3557 110.079 87.5135 110.103 87.6631 110.134L87.6631 108.484C87.5831 108.471 87.4679 108.456 87.3176 108.44C87.1673 108.424 87.0123 108.416 86.8527 108.416C86.1753 108.416 85.6035 108.573 85.1371 108.888C84.6707 109.204 84.3405 109.642 84.1463 110.203L84.0178 110.203L84.0178 108.603L82.3186 108.603L82.3186 119.043Z"/>
<path d="M93.1019 119.231C94.0892 119.231 94.9418 119.012 95.6598 118.575C96.3779 118.138 96.9338 117.515 97.3277 116.708C97.7216 115.9 97.9185 114.941 97.9185 113.831L97.9185 113.811C97.9185 112.696 97.7216 111.734 97.3277 110.927C96.9338 110.121 96.3775 109.5 95.6587 109.066C94.9399 108.632 94.0869 108.416 93.0997 108.416C92.119 108.416 91.268 108.632 90.5467 109.066C89.8254 109.5 89.2678 110.121 88.8739 110.927C88.48 111.734 88.2831 112.696 88.2831 113.811L88.2831 113.831C88.2831 114.94 88.48 115.898 88.8739 116.707C89.2678 117.515 89.8254 118.138 90.5467 118.575C91.268 119.012 92.1198 119.231 93.1019 119.231ZM93.1044 117.727C92.4557 117.727 91.9021 117.573 91.4437 117.264C90.9853 116.955 90.6336 116.511 90.3887 115.93C90.1438 115.35 90.0213 114.65 90.0213 113.831L90.0213 113.811C90.0213 112.987 90.1438 112.285 90.3887 111.706C90.6336 111.127 90.9853 110.685 91.4437 110.379C91.9021 110.073 92.4541 109.919 93.0997 109.919C93.7484 109.919 94.3019 110.072 94.7603 110.378C95.2186 110.683 95.5699 111.125 95.814 111.705C96.0582 112.285 96.1802 112.987 96.1802 113.811L96.1802 113.831C96.1802 114.65 96.0582 115.35 95.814 115.93C95.5699 116.511 95.2194 116.955 94.7626 117.264C94.3057 117.573 93.753 117.727 93.1044 117.727Z"/>
<path d="M99.8869 119.043L101.586 119.043L101.586 112.872C101.586 112.263 101.698 111.739 101.921 111.299C102.144 110.859 102.459 110.52 102.866 110.28C103.273 110.039 103.753 109.919 104.307 109.919C105.133 109.919 105.745 110.147 106.142 110.601C106.539 111.055 106.738 111.743 106.738 112.664L106.738 119.043L108.437 119.043L108.437 112.28C108.437 111.051 108.122 110.1 107.492 109.426C106.862 108.752 105.963 108.416 104.795 108.416C104.022 108.416 103.382 108.57 102.876 108.879C102.37 109.189 101.983 109.613 101.715 110.153L101.586 110.153L101.586 108.603L99.8869 108.603L99.8869 119.043Z"/>
<path d="M115.166 122.731C116.114 122.731 116.936 122.572 117.631 122.255C118.327 121.938 118.863 121.489 119.24 120.909C119.617 120.328 119.806 119.647 119.806 118.864L119.806 108.603L118.106 108.603L118.106 110.337L118.008 110.337C117.794 109.944 117.527 109.605 117.207 109.319C116.886 109.032 116.519 108.81 116.105 108.652C115.692 108.494 115.239 108.416 114.747 108.416C113.843 108.416 113.06 108.634 112.4 109.071C111.739 109.508 111.227 110.111 110.864 110.879C110.501 111.647 110.319 112.531 110.319 113.531L110.319 113.548C110.319 114.548 110.499 115.432 110.858 116.199C111.216 116.966 111.725 117.566 112.383 117.999C113.04 118.432 113.815 118.648 114.708 118.648C115.191 118.648 115.641 118.577 116.057 118.434C116.473 118.291 116.845 118.083 117.174 117.809C117.503 117.536 117.776 117.208 117.993 116.825L118.121 116.825L118.121 118.758C118.121 119.536 117.861 120.142 117.34 120.576C116.82 121.01 116.094 121.227 115.162 121.227C114.422 121.227 113.823 121.104 113.365 120.857C112.907 120.611 112.624 120.293 112.516 119.904L112.499 119.875L110.753 119.875L110.743 119.904C110.838 120.46 111.074 120.951 111.45 121.378C111.826 121.805 112.329 122.137 112.958 122.374C113.587 122.612 114.323 122.731 115.166 122.731ZM115.079 117.144C114.44 117.144 113.896 116.993 113.446 116.69C112.996 116.388 112.652 115.967 112.414 115.427C112.176 114.888 112.058 114.262 112.058 113.548L112.058 113.531C112.058 112.821 112.176 112.194 112.414 111.65C112.652 111.107 112.996 110.682 113.446 110.377C113.896 110.072 114.44 109.919 115.079 109.919C115.712 109.919 116.257 110.072 116.716 110.378C117.174 110.684 117.528 111.109 117.777 111.653C118.027 112.196 118.151 112.822 118.151 113.531L118.151 113.548C118.151 114.257 118.027 114.882 117.777 115.422C117.528 115.962 117.175 116.384 116.717 116.688C116.259 116.992 115.713 117.144 115.079 117.144Z"/>
<path d="M122.387 119.043L124.087 119.043L124.087 104.481L122.387 104.481L122.387 119.043Z"/>
<path d="M127.587 122.67C128.209 122.67 128.733 122.578 129.159 122.395C129.585 122.213 129.953 121.904 130.265 121.469C130.577 121.034 130.873 120.439 131.154 119.685L135.231 108.603L133.444 108.603L130.28 118.122L130.88 117.217L130.149 117.217L130.749 118.122L127.581 108.603L125.764 108.603L129.631 119.053L129.433 119.666C129.241 120.264 128.989 120.68 128.677 120.913C128.364 121.147 127.96 121.264 127.465 121.264C127.351 121.264 127.235 121.26 127.118 121.251C127.002 121.243 126.895 121.23 126.799 121.212L126.799 122.607C126.914 122.626 127.044 122.641 127.188 122.653C127.331 122.664 127.464 122.67 127.587 122.67Z"/>
<path d="M67.7019 143.098C68.4361 143.098 69.0844 142.932 69.6469 142.6C70.2095 142.268 70.6503 141.809 70.9693 141.221L71.0979 141.221L71.0979 142.91L72.7971 142.91L72.7971 128.349L71.0979 128.349L71.0979 134.14L70.9693 134.14C70.6752 133.574 70.2362 133.123 69.6524 132.787C69.0686 132.451 68.4162 132.283 67.695 132.283C66.8139 132.283 66.0448 132.505 65.3878 132.951C64.7308 133.396 64.2204 134.023 63.8566 134.83C63.4928 135.638 63.3109 136.588 63.3109 137.681L63.3109 137.698C63.3109 138.785 63.4924 139.735 63.8555 140.546C64.2185 141.356 64.7302 141.985 65.3904 142.43C66.0506 142.875 66.8211 143.098 67.7019 143.098ZM68.0787 141.594C67.4499 141.594 66.9087 141.438 66.4551 141.125C66.0015 140.812 65.6538 140.364 65.4119 139.78C65.1701 139.196 65.0492 138.502 65.0492 137.698L65.0492 137.681C65.0492 136.871 65.1701 136.176 65.4119 135.597C65.6538 135.017 66.0015 134.57 66.4551 134.257C66.9087 133.943 67.4499 133.787 68.0787 133.787C68.7013 133.787 69.2411 133.945 69.6979 134.263C70.1548 134.58 70.5076 135.029 70.7566 135.61C71.0055 136.19 71.13 136.881 71.13 137.681L71.13 137.698C71.13 138.493 71.0059 139.182 70.7577 139.766C70.5096 140.35 70.1567 140.8 69.6991 141.118C69.2414 141.435 68.7013 141.594 68.0787 141.594Z"/>
<path d="M75.4364 142.91L77.1356 142.91L77.1356 132.471L75.4364 132.471L75.4364 142.91ZM76.2934 130.513C76.6128 130.513 76.8837 130.4 77.1061 130.175C77.3286 129.949 77.4398 129.68 77.4398 129.367C77.4398 129.047 77.3286 128.776 77.1061 128.554C76.8837 128.331 76.6128 128.22 76.2934 128.22C75.9805 128.22 75.7112 128.331 75.4855 128.554C75.2598 128.776 75.1469 129.047 75.1469 129.367C75.1469 129.68 75.2598 129.949 75.4855 130.175C75.7112 130.4 75.9805 130.513 76.2934 130.513Z"/>
<path d="M83.2904 143.098C84.0804 143.098 84.7882 142.966 85.4137 142.701C86.0392 142.436 86.5341 142.068 86.8982 141.594C87.2624 141.121 87.4445 140.576 87.4445 139.959L87.4445 139.942C87.4445 139.194 87.2101 138.598 86.7412 138.152C86.2724 137.707 85.5385 137.363 84.5397 137.121L82.9209 136.73C82.3162 136.583 81.8778 136.392 81.6056 136.156C81.3334 135.92 81.1972 135.625 81.1972 135.27L81.1972 135.253C81.1972 134.943 81.2882 134.672 81.4701 134.44C81.652 134.208 81.9026 134.027 82.2219 133.895C82.5413 133.764 82.9085 133.699 83.3236 133.699C83.96 133.699 84.4734 133.834 84.8636 134.103C85.2538 134.373 85.4989 134.725 85.5988 135.16L85.6011 135.176L87.2596 135.176L87.2573 135.146C87.1883 134.575 86.9835 134.074 86.643 133.644C86.3024 133.214 85.8495 132.88 85.2845 132.641C84.7194 132.402 84.0682 132.283 83.331 132.283C82.592 132.283 81.9297 132.415 81.3442 132.678C80.7587 132.942 80.2981 133.304 79.9624 133.763C79.6268 134.222 79.459 134.745 79.459 135.331L79.459 135.34C79.459 136.089 79.6908 136.691 80.1546 137.145C80.6184 137.599 81.3387 137.942 82.3156 138.175L83.9418 138.566C84.576 138.719 85.0286 138.917 85.2996 139.161C85.5707 139.405 85.7062 139.707 85.7062 140.066L85.7062 140.083C85.7062 140.399 85.6059 140.677 85.4053 140.917C85.2047 141.156 84.928 141.344 84.5751 141.479C84.2222 141.614 83.8096 141.682 83.3374 141.682C82.6623 141.682 82.1202 141.547 81.7112 141.276C81.3022 141.005 81.0308 140.643 80.8968 140.19L80.8922 140.167L79.1631 140.167L79.1654 140.188C79.232 140.773 79.4429 141.284 79.7981 141.72C80.1533 142.156 80.628 142.494 81.2224 142.736C81.8168 142.977 82.5061 143.098 83.2904 143.098Z"/>
<path d="M92.3334 143.098C92.8041 143.098 93.2392 143.029 93.6386 142.891C94.038 142.753 94.3968 142.552 94.7148 142.287C95.0328 142.023 95.2995 141.705 95.5147 141.334L95.6432 141.334L95.6432 142.91L97.3424 142.91L97.3424 135.747C97.3424 135.03 97.1867 134.413 96.8751 133.895C96.5636 133.377 96.1115 132.979 95.5189 132.7C94.9262 132.422 94.2072 132.283 93.3617 132.283C92.6022 132.283 91.9303 132.403 91.3459 132.643C90.7615 132.884 90.2899 133.215 89.9313 133.639C89.5727 134.062 89.3524 134.551 89.2705 135.106L89.2608 135.176L90.9461 135.176L90.9583 135.133C91.0858 134.712 91.3509 134.383 91.7538 134.144C92.1567 133.906 92.6762 133.787 93.3123 133.787C94.0816 133.787 94.6625 133.959 95.0548 134.304C95.4471 134.649 95.6432 135.143 95.6432 135.786L95.6432 139.001C95.6432 139.499 95.5154 139.946 95.2598 140.341C95.0043 140.737 94.6545 141.049 94.2106 141.279C93.7668 141.509 93.2605 141.623 92.6919 141.623C92.0799 141.623 91.5763 141.476 91.1812 141.182C90.786 140.889 90.5884 140.48 90.5884 139.957L90.5884 139.937C90.5884 139.427 90.7731 139.029 91.1425 138.743C91.5118 138.456 92.0823 138.291 92.8539 138.247L96.4928 138.017L96.4928 136.669L92.6511 136.899C91.441 136.969 90.505 137.268 89.843 137.795C89.1811 138.323 88.8502 139.047 88.8502 139.967L88.8502 139.987C88.8502 140.619 89.0017 141.168 89.3048 141.635C89.6079 142.103 90.022 142.463 90.5472 142.717C91.0724 142.971 91.6678 143.098 92.3334 143.098Z"/>
<path d="M104.102 146.598C105.049 146.598 105.871 146.439 106.566 146.122C107.262 145.805 107.798 145.356 108.175 144.776C108.552 144.196 108.741 143.514 108.741 142.731L108.741 132.471L107.041 132.471L107.041 134.204L106.943 134.204C106.729 133.812 106.462 133.472 106.142 133.186C105.821 132.899 105.454 132.677 105.04 132.519C104.627 132.362 104.174 132.283 103.682 132.283C102.778 132.283 101.996 132.501 101.335 132.938C100.674 133.375 100.162 133.978 99.7988 134.746C99.4359 135.514 99.2544 136.398 99.2544 137.398L99.2544 137.415C99.2544 138.415 99.4338 139.299 99.7927 140.066C100.151 140.833 100.66 141.433 101.318 141.866C101.975 142.299 102.75 142.516 103.643 142.516C104.126 142.516 104.576 142.444 104.992 142.301C105.408 142.158 105.78 141.95 106.109 141.676C106.438 141.403 106.711 141.075 106.928 140.692L107.056 140.692L107.056 142.625C107.056 143.403 106.796 144.009 106.275 144.443C105.755 144.877 105.029 145.094 104.097 145.094C103.357 145.094 102.758 144.971 102.3 144.725C101.842 144.478 101.559 144.16 101.451 143.771L101.434 143.743L99.6881 143.743L99.6777 143.771C99.7735 144.327 100.009 144.818 100.385 145.245C100.761 145.672 101.264 146.004 101.893 146.242C102.522 146.479 103.258 146.598 104.102 146.598ZM104.014 141.012C103.375 141.012 102.831 140.86 102.381 140.558C101.931 140.255 101.587 139.834 101.349 139.295C101.111 138.755 100.993 138.129 100.993 137.415L100.993 137.398C100.993 136.688 101.111 136.061 101.349 135.517C101.587 134.974 101.931 134.55 102.381 134.244C102.831 133.939 103.375 133.787 104.014 133.787C104.647 133.787 105.192 133.94 105.651 134.246C106.109 134.552 106.463 134.976 106.712 135.52C106.962 136.063 107.086 136.689 107.086 137.398L107.086 137.415C107.086 138.124 106.962 138.749 106.712 139.289C106.463 139.829 106.11 140.251 105.652 140.555C105.194 140.86 104.648 141.012 104.014 141.012Z"/>
<path d="M111.227 142.91L112.926 142.91L112.926 136.447C112.926 135.932 113.038 135.485 113.262 135.105C113.486 134.725 113.796 134.429 114.191 134.219C114.587 134.009 115.043 133.904 115.559 133.904C115.752 133.904 115.932 133.912 116.098 133.929C116.264 133.946 116.422 133.97 116.572 134.001L116.572 132.351C116.491 132.338 116.376 132.323 116.226 132.307C116.076 132.291 115.921 132.283 115.761 132.283C115.084 132.283 114.512 132.44 114.046 132.756C113.579 133.071 113.249 133.509 113.055 134.07L112.926 134.07L112.926 132.471L111.227 132.471L111.227 142.91Z"/>
<path d="M121.981 143.098C122.584 143.098 123.132 143.019 123.625 142.861C124.117 142.703 124.547 142.488 124.913 142.216C125.279 141.945 125.579 141.638 125.811 141.296C126.044 140.953 126.205 140.596 126.295 140.224L126.314 140.142L124.622 140.142L124.585 140.23C124.492 140.458 124.332 140.676 124.104 140.884C123.876 141.092 123.588 141.261 123.24 141.391C122.891 141.522 122.485 141.587 122.02 141.587C121.388 141.587 120.84 141.447 120.376 141.166C119.912 140.886 119.554 140.484 119.303 139.958C119.051 139.433 118.925 138.8 118.925 138.059L118.925 137.39C118.925 136.61 119.054 135.952 119.311 135.417C119.569 134.882 119.918 134.478 120.36 134.204C120.803 133.931 121.304 133.794 121.864 133.794C122.424 133.794 122.92 133.924 123.352 134.185C123.783 134.445 124.122 134.84 124.367 135.37C124.612 135.899 124.734 136.572 124.734 137.39L124.734 138.059L125.579 136.821L118.064 136.821L118.064 138.172L126.441 138.172L126.441 137.517C126.441 136.476 126.258 135.563 125.893 134.778C125.527 133.992 125.003 133.38 124.321 132.941C123.639 132.502 122.823 132.283 121.874 132.283C120.929 132.283 120.105 132.512 119.402 132.97C118.698 133.429 118.154 134.065 117.769 134.88C117.384 135.695 117.191 136.642 117.191 137.72L117.191 137.729C117.191 138.82 117.384 139.768 117.768 140.573C118.152 141.377 118.702 141.999 119.417 142.439C120.131 142.878 120.986 143.098 121.981 143.098Z"/>
<path d="M132.678 143.098C133.281 143.098 133.829 143.019 134.322 142.861C134.815 142.703 135.244 142.488 135.61 142.216C135.976 141.945 136.276 141.638 136.508 141.296C136.741 140.953 136.902 140.596 136.992 140.224L137.011 140.142L135.319 140.142L135.282 140.23C135.19 140.458 135.029 140.676 134.801 140.884C134.574 141.092 134.285 141.261 133.937 141.391C133.589 141.522 133.182 141.587 132.717 141.587C132.086 141.587 131.538 141.447 131.074 141.166C130.609 140.886 130.252 140.484 130 139.958C129.748 139.433 129.622 138.8 129.622 138.059L129.622 137.39C129.622 136.61 129.751 135.952 130.009 135.417C130.266 134.882 130.616 134.478 131.058 134.204C131.5 133.931 132.001 133.794 132.561 133.794C133.121 133.794 133.617 133.924 134.049 134.185C134.481 134.445 134.819 134.84 135.064 135.37C135.309 135.899 135.432 136.572 135.432 137.39L135.432 138.059L136.276 136.821L128.761 136.821L128.761 138.172L137.138 138.172L137.138 137.517C137.138 136.476 136.956 135.563 136.59 134.778C136.224 133.992 135.701 133.38 135.018 132.941C134.336 132.502 133.52 132.283 132.571 132.283C131.627 132.283 130.803 132.512 130.099 132.97C129.396 133.429 128.851 134.065 128.466 134.88C128.081 135.695 127.889 136.642 127.889 137.72L127.889 137.729C127.889 138.82 128.081 139.768 128.465 140.573C128.85 141.377 129.399 141.999 130.114 142.439C130.829 142.878 131.683 143.098 132.678 143.098Z"/>
</g>
<g fill="#000000" opacity="1" stroke="none">
<path d="M274.078 119.231C274.868 119.231 275.576 119.098 276.201 118.834C276.827 118.569 277.322 118.2 277.686 117.727C278.05 117.254 278.232 116.709 278.232 116.092L278.232 116.074C278.232 115.327 277.998 114.73 277.529 114.285C277.06 113.84 276.326 113.496 275.327 113.253L273.709 112.863C273.104 112.716 272.666 112.525 272.393 112.289C272.121 112.053 271.985 111.757 271.985 111.402L271.985 111.385C271.985 111.076 272.076 110.805 272.258 110.573C272.44 110.341 272.69 110.159 273.01 110.028C273.329 109.897 273.696 109.832 274.111 109.832C274.748 109.832 275.261 109.966 275.651 110.236C276.042 110.506 276.287 110.858 276.387 111.293L276.389 111.309L278.047 111.309L278.045 111.279C277.976 110.708 277.771 110.207 277.431 109.777C277.09 109.347 276.637 109.013 276.072 108.774C275.507 108.535 274.856 108.416 274.119 108.416C273.38 108.416 272.717 108.547 272.132 108.811C271.546 109.075 271.086 109.437 270.75 109.896C270.415 110.355 270.247 110.878 270.247 111.463L270.247 111.473C270.247 112.222 270.479 112.824 270.942 113.278C271.406 113.732 272.126 114.075 273.103 114.308L274.73 114.699C275.364 114.852 275.816 115.05 276.087 115.294C276.358 115.538 276.494 115.839 276.494 116.199L276.494 116.216C276.494 116.532 276.394 116.81 276.193 117.049C275.992 117.289 275.716 117.476 275.363 117.612C275.01 117.747 274.597 117.815 274.125 117.815C273.45 117.815 272.908 117.679 272.499 117.409C272.09 117.138 271.819 116.776 271.685 116.323L271.68 116.3L269.951 116.3L269.953 116.32C270.02 116.906 270.231 117.417 270.586 117.853C270.941 118.288 271.416 118.627 272.01 118.869C272.605 119.11 273.294 119.231 274.078 119.231Z"/>
<path d="M280.307 119.043L282.007 119.043L282.007 104.481L280.307 104.481L280.307 119.043Z"/>
<path d="M284.646 119.043L286.345 119.043L286.345 108.603L284.646 108.603L284.646 119.043ZM285.503 106.646C285.822 106.646 286.093 106.533 286.316 106.307C286.538 106.082 286.649 105.812 286.649 105.499C286.649 105.18 286.538 104.909 286.316 104.687C286.093 104.464 285.822 104.353 285.503 104.353C285.19 104.353 284.921 104.464 284.695 104.687C284.469 104.909 284.356 105.18 284.356 105.499C284.356 105.812 284.469 106.082 284.695 106.307C284.921 106.533 285.19 106.646 285.503 106.646Z"/>
<path d="M293.216 122.731C294.164 122.731 294.985 122.572 295.681 122.255C296.376 121.938 296.912 121.489 297.289 120.909C297.666 120.328 297.855 119.647 297.855 118.864L297.855 108.603L296.156 108.603L296.156 110.337L296.057 110.337C295.844 109.944 295.576 109.605 295.256 109.319C294.935 109.032 294.568 108.81 294.154 108.652C293.741 108.494 293.288 108.416 292.796 108.416C291.892 108.416 291.11 108.634 290.449 109.071C289.788 109.508 289.276 110.111 288.913 110.879C288.55 111.647 288.369 112.531 288.369 113.531L288.369 113.548C288.369 114.548 288.548 115.432 288.907 116.199C289.266 116.966 289.774 117.566 290.432 117.999C291.089 118.432 291.865 118.648 292.757 118.648C293.241 118.648 293.69 118.577 294.106 118.434C294.522 118.291 294.894 118.083 295.223 117.809C295.552 117.536 295.825 117.208 296.042 116.825L296.171 116.825L296.171 118.758C296.171 119.536 295.91 120.142 295.39 120.576C294.869 121.01 294.143 121.227 293.211 121.227C292.471 121.227 291.872 121.104 291.414 120.857C290.956 120.611 290.673 120.293 290.565 119.904L290.548 119.875L288.802 119.875L288.792 119.904C288.888 120.46 289.123 120.951 289.499 121.378C289.875 121.805 290.378 122.137 291.007 122.374C291.636 122.612 292.372 122.731 293.216 122.731ZM293.128 117.144C292.49 117.144 291.945 116.993 291.495 116.69C291.045 116.388 290.701 115.967 290.463 115.427C290.226 114.888 290.107 114.262 290.107 113.548L290.107 113.531C290.107 112.821 290.226 112.194 290.463 111.65C290.701 111.107 291.045 110.682 291.495 110.377C291.945 110.072 292.49 109.919 293.128 109.919C293.761 109.919 294.306 110.072 294.765 110.378C295.224 110.684 295.577 111.109 295.827 111.653C296.076 112.196 296.2 112.822 296.2 113.531L296.2 113.548C296.2 114.257 296.076 114.882 295.827 115.422C295.577 115.962 295.224 116.384 294.766 116.688C294.308 116.992 293.763 117.144 293.128 117.144Z"/>
<path d="M300.436 119.043L302.136 119.043L302.136 112.884C302.136 112.275 302.247 111.75 302.47 111.308C302.693 110.867 303.008 110.525 303.414 110.283C303.821 110.041 304.299 109.919 304.85 109.919C305.679 109.919 306.299 110.155 306.709 110.628C307.119 111.1 307.325 111.807 307.325 112.75L307.325 119.043L309.024 119.043L309.024 112.367C309.024 111.537 308.878 110.828 308.587 110.239C308.296 109.65 307.878 109.199 307.331 108.886C306.785 108.572 306.126 108.416 305.354 108.416C304.584 108.416 303.943 108.571 303.433 108.883C302.922 109.194 302.533 109.632 302.264 110.195L302.136 110.195L302.136 104.481L300.436 104.481L300.436 119.043Z"/>
<path d="M315.063 119.149C315.232 119.149 315.398 119.139 315.562 119.121C315.725 119.102 315.882 119.081 316.031 119.058L316.031 117.629C315.894 117.64 315.774 117.65 315.67 117.657C315.565 117.664 315.444 117.668 315.305 117.668C314.779 117.668 314.4 117.542 314.165 117.29C313.931 117.039 313.814 116.613 313.814 116.013L313.814 110.01L316.031 110.01L316.031 108.603L313.814 108.603L313.814 105.874L312.056 105.874L312.056 108.603L310.437 108.603L310.437 110.01L312.056 110.01L312.056 116.343C312.056 117.338 312.296 118.054 312.775 118.492C313.255 118.93 314.017 119.149 315.063 119.149Z"/>
<path d="M318.045 119.043L319.744 119.043L319.744 104.481L318.045 104.481L318.045 119.043Z"/>
<path d="M323.245 122.67C323.867 122.67 324.391 122.578 324.817 122.395C325.242 122.213 325.611 121.904 325.923 121.469C326.235 121.034 326.531 120.439 326.812 119.685L330.888 108.603L329.101 108.603L325.938 118.122L326.538 117.217L325.807 117.217L326.407 118.122L323.238 108.603L321.422 108.603L325.288 119.053L325.091 119.666C324.899 120.264 324.647 120.68 324.334 120.913C324.022 121.147 323.618 121.264 323.122 121.264C323.008 121.264 322.893 121.26 322.776 121.251C322.659 121.243 322.553 121.23 322.456 121.212L322.456 122.607C322.572 122.626 322.702 122.641 322.845 122.653C322.989 122.664 323.122 122.67 323.245 122.67Z"/>
<path d="M267.702 143.098C268.436 143.098 269.084 142.932 269.647 142.6C270.209 142.268 270.65 141.809 270.969 141.221L271.098 141.221L271.098 142.91L272.797 142.91L272.797 128.349L271.098 128.349L271.098 134.14L270.969 134.14C270.675 133.574 270.236 133.123 269.652 132.787C269.069 132.451 268.416 132.283 267.695 132.283C266.814 132.283 266.045 132.505 265.388 132.951C264.731 133.396 264.22 134.023 263.857 134.83C263.493 135.638 263.311 136.588 263.311 137.681L263.311 137.698C263.311 138.785 263.492 139.735 263.855 140.546C264.219 141.356 264.73 141.985 265.39 142.43C266.051 142.875 266.821 143.098 267.702 143.098ZM268.079 141.594C267.45 141.594 266.909 141.438 266.455 141.125C266.002 140.812 265.654 140.364 265.412 139.78C265.17 139.196 265.049 138.502 265.049 137.698L265.049 137.681C265.049 136.871 265.17 136.176 265.412 135.597C265.654 135.017 266.002 134.57 266.455 134.257C266.909 133.943 267.45 133.787 268.079 133.787C268.701 133.787 269.241 133.945 269.698 134.263C270.155 134.58 270.508 135.029 270.757 135.61C271.005 136.19 271.13 136.881 271.13 137.681L271.13 137.698C271.13 138.493 271.006 139.182 270.758 139.766C270.51 140.35 270.157 140.8 269.699 141.118C269.241 141.435 268.701 141.594 268.079 141.594Z"/>
<path d="M275.436 142.91L277.136 142.91L277.136 132.471L275.436 132.471L275.436 142.91ZM276.293 130.513C276.613 130.513 276.884 130.4 277.106 130.175C277.329 129.949 277.44 129.68 277.44 129.367C277.44 129.047 277.329 128.776 277.106 128.554C276.884 128.331 276.613 128.22 276.293 128.22C275.981 128.22 275.711 128.331 275.485 128.554C275.26 128.776 275.147 129.047 275.147 129.367C275.147 129.68 275.26 129.949 275.485 130.175C275.711 130.4 275.981 130.513 276.293 130.513Z"/>
<path d="M283.29 143.098C284.08 143.098 284.788 142.966 285.414 142.701C286.039 142.436 286.534 142.068 286.898 141.594C287.262 141.121 287.444 140.576 287.444 139.959L287.444 139.942C287.444 139.194 287.21 138.598 286.741 138.152C286.272 137.707 285.539 137.363 284.54 137.121L282.921 136.73C282.316 136.583 281.878 136.392 281.606 136.156C281.333 135.92 281.197 135.625 281.197 135.27L281.197 135.253C281.197 134.943 281.288 134.672 281.47 134.44C281.652 134.208 281.903 134.027 282.222 133.895C282.541 133.764 282.909 133.699 283.324 133.699C283.96 133.699 284.473 133.834 284.864 134.103C285.254 134.373 285.499 134.725 285.599 135.16L285.601 135.176L287.26 135.176L287.257 135.146C287.188 134.575 286.984 134.074 286.643 133.644C286.302 133.214 285.85 132.88 285.284 132.641C284.719 132.402 284.068 132.283 283.331 132.283C282.592 132.283 281.93 132.415 281.344 132.678C280.759 132.942 280.298 133.304 279.962 133.763C279.627 134.222 279.459 134.745 279.459 135.331L279.459 135.34C279.459 136.089 279.691 136.691 280.155 137.145C280.618 137.599 281.339 137.942 282.316 138.175L283.942 138.566C284.576 138.719 285.029 138.917 285.3 139.161C285.571 139.405 285.706 139.707 285.706 140.066L285.706 140.083C285.706 140.399 285.606 140.677 285.405 140.917C285.205 141.156 284.928 141.344 284.575 141.479C284.222 141.614 283.81 141.682 283.337 141.682C282.662 141.682 282.12 141.547 281.711 141.276C281.302 141.005 281.031 140.643 280.897 140.19L280.892 140.167L279.163 140.167L279.165 140.188C279.232 140.773 279.443 141.284 279.798 141.72C280.153 142.156 280.628 142.494 281.222 142.736C281.817 142.977 282.506 143.098 283.29 143.098Z"/>
<path d="M292.333 143.098C292.804 143.098 293.239 143.029 293.639 142.891C294.038 142.753 294.397 142.552 294.715 142.287C295.033 142.023 295.299 141.705 295.515 141.334L295.643 141.334L295.643 142.91L297.342 142.91L297.342 135.747C297.342 135.03 297.187 134.413 296.875 133.895C296.564 133.377 296.112 132.979 295.519 132.7C294.926 132.422 294.207 132.283 293.362 132.283C292.602 132.283 291.93 132.403 291.346 132.643C290.761 132.884 290.29 133.215 289.931 133.639C289.573 134.062 289.352 134.551 289.271 135.106L289.261 135.176L290.946 135.176L290.958 135.133C291.086 134.712 291.351 134.383 291.754 134.144C292.157 133.906 292.676 133.787 293.312 133.787C294.082 133.787 294.662 133.959 295.055 134.304C295.447 134.649 295.643 135.143 295.643 135.786L295.643 139.001C295.643 139.499 295.515 139.946 295.26 140.341C295.004 140.737 294.655 141.049 294.211 141.279C293.767 141.509 293.261 141.623 292.692 141.623C292.08 141.623 291.576 141.476 291.181 141.182C290.786 140.889 290.588 140.48 290.588 139.957L290.588 139.937C290.588 139.427 290.773 139.029 291.142 138.743C291.512 138.456 292.082 138.291 292.854 138.247L296.493 138.017L296.493 136.669L292.651 136.899C291.441 136.969 290.505 137.268 289.843 137.795C289.181 138.323 288.85 139.047 288.85 139.967L288.85 139.987C288.85 140.619 289.002 141.168 289.305 141.635C289.608 142.103 290.022 142.463 290.547 142.717C291.072 142.971 291.668 143.098 292.333 143.098Z"/>
<path d="M304.102 146.598C305.049 146.598 305.871 146.439 306.566 146.122C307.262 145.805 307.798 145.356 308.175 144.776C308.552 144.196 308.741 143.514 308.741 142.731L308.741 132.471L307.041 132.471L307.041 134.204L306.943 134.204C306.729 133.812 306.462 133.472 306.142 133.186C305.821 132.899 305.454 132.677 305.04 132.519C304.627 132.362 304.174 132.283 303.682 132.283C302.778 132.283 301.996 132.501 301.335 132.938C300.674 133.375 300.162 133.978 299.799 134.746C299.436 135.514 299.254 136.398 299.254 137.398L299.254 137.415C299.254 138.415 299.434 139.299 299.793 140.066C300.151 140.833 300.66 141.433 301.318 141.866C301.975 142.299 302.75 142.516 303.643 142.516C304.126 142.516 304.576 142.444 304.992 142.301C305.408 142.158 305.78 141.95 306.109 141.676C306.438 141.403 306.711 141.075 306.928 140.692L307.056 140.692L307.056 142.625C307.056 143.403 306.796 144.009 306.275 144.443C305.755 144.877 305.029 145.094 304.097 145.094C303.357 145.094 302.758 144.971 302.3 144.725C301.842 144.478 301.559 144.16 301.451 143.771L301.434 143.743L299.688 143.743L299.678 143.771C299.774 144.327 300.009 144.818 300.385 145.245C300.761 145.672 301.264 146.004 301.893 146.242C302.522 146.479 303.258 146.598 304.102 146.598ZM304.014 141.012C303.375 141.012 302.831 140.86 302.381 140.558C301.931 140.255 301.587 139.834 301.349 139.295C301.111 138.755 300.993 138.129 300.993 137.415L300.993 137.398C300.993 136.688 301.111 136.061 301.349 135.517C301.587 134.974 301.931 134.55 302.381 134.244C302.831 133.939 303.375 133.787 304.014 133.787C304.647 133.787 305.192 133.94 305.651 134.246C306.109 134.552 306.463 134.976 306.712 135.52C306.962 136.063 307.086 136.689 307.086 137.398L307.086 137.415C307.086 138.124 306.962 138.749 306.712 139.289C306.463 139.829 306.11 140.251 305.652 140.555C305.194 140.86 304.648 141.012 304.014 141.012Z"/>
<path d="M311.227 142.91L312.926 142.91L312.926 136.447C312.926 135.932 313.038 135.485 313.262 135.105C313.486 134.725 313.796 134.429 314.191 134.219C314.587 134.009 315.043 133.904 315.559 133.904C315.752 133.904 315.932 133.912 316.098 133.929C316.264 133.946 316.422 133.97 316.572 134.001L316.572 132.351C316.491 132.338 316.376 132.323 316.226 132.307C316.076 132.291 315.921 132.283 315.761 132.283C315.084 132.283 314.512 132.44 314.046 132.756C313.579 133.071 313.249 133.509 313.055 134.07L312.926 134.07L312.926 132.471L311.227 132.471L311.227 142.91Z"/>
<path d="M321.981 143.098C322.584 143.098 323.132 143.019 323.625 142.861C324.117 142.703 324.547 142.488 324.913 142.216C325.279 141.945 325.579 141.638 325.811 141.296C326.044 140.953 326.205 140.596 326.295 140.224L326.314 140.142L324.622 140.142L324.585 140.23C324.492 140.458 324.332 140.676 324.104 140.884C323.876 141.092 323.588 141.261 323.24 141.391C322.891 141.522 322.485 141.587 322.02 141.587C321.388 141.587 320.84 141.447 320.376 141.166C319.912 140.886 319.554 140.484 319.303 139.958C319.051 139.433 318.925 138.8 318.925 138.059L318.925 137.39C318.925 136.61 319.054 135.952 319.311 135.417C319.569 134.882 319.918 134.478 320.36 134.204C320.803 133.931 321.304 133.794 321.864 133.794C322.424 133.794 322.92 133.924 323.352 134.185C323.783 134.445 324.122 134.84 324.367 135.37C324.612 135.899 324.734 136.572 324.734 137.39L324.734 138.059L325.579 136.821L318.064 136.821L318.064 138.172L326.441 138.172L326.441 137.517C326.441 136.476 326.258 135.563 325.893 134.778C325.527 133.992 325.003 133.38 324.321 132.941C323.639 132.502 322.823 132.283 321.874 132.283C320.929 132.283 320.105 132.512 319.402 132.97C318.698 133.429 318.154 134.065 317.769 134.88C317.384 135.695 317.191 136.642 317.191 137.72L317.191 137.729C317.191 138.82 317.384 139.768 317.768 140.573C318.152 141.377 318.702 141.999 319.417 142.439C320.131 142.878 320.986 143.098 321.981 143.098Z"/>
<path d="M332.678 143.098C333.281 143.098 333.829 143.019 334.322 142.861C334.815 142.703 335.244 142.488 335.61 142.216C335.976 141.945 336.276 141.638 336.508 141.296C336.741 140.953 336.902 140.596 336.992 140.224L337.011 140.142L335.319 140.142L335.282 140.23C335.19 140.458 335.029 140.676 334.801 140.884C334.574 141.092 334.285 141.261 333.937 141.391C333.589 141.522 333.182 141.587 332.717 141.587C332.086 141.587 331.538 141.447 331.074 141.166C330.609 140.886 330.252 140.484 330 139.958C329.748 139.433 329.622 138.8 329.622 138.059L329.622 137.39C329.622 136.61 329.751 135.952 330.009 135.417C330.266 134.882 330.616 134.478 331.058 134.204C331.5 133.931 332.001 133.794 332.561 133.794C333.121 133.794 333.617 133.924 334.049 134.185C334.481 134.445 334.819 134.84 335.064 135.37C335.309 135.899 335.432 136.572 335.432 137.39L335.432 138.059L336.276 136.821L328.761 136.821L328.761 138.172L337.138 138.172L337.138 137.517C337.138 136.476 336.956 135.563 336.59 134.778C336.224 133.992 335.701 133.38 335.018 132.941C334.336 132.502 333.52 132.283 332.571 132.283C331.627 132.283 330.803 132.512 330.099 132.97C329.396 133.429 328.851 134.065 328.466 134.88C328.081 135.695 327.889 136.642 327.889 137.72L327.889 137.729C327.889 138.82 328.081 139.768 328.465 140.573C328.85 141.377 329.399 141.999 330.114 142.439C330.829 142.878 331.683 143.098 332.678 143.098Z"/>
</g>
<g fill="#000000" opacity="1" stroke="none">
<path d="M443.681 119.043L445.38 119.043L445.38 112.872C445.38 112.263 445.491 111.739 445.715 111.299C445.938 110.859 446.253 110.52 446.66 110.28C447.067 110.039 447.547 109.919 448.101 109.919C448.927 109.919 449.539 110.147 449.936 110.601C450.333 111.055 450.532 111.743 450.532 112.664L450.532 119.043L452.231 119.043L452.231 112.28C452.231 111.051 451.916 110.1 451.286 109.426C450.656 108.752 449.757 108.416 448.589 108.416C447.815 108.416 447.176 108.57 446.67 108.879C446.164 109.189 445.777 109.613 445.508 110.153L445.38 110.153L445.38 108.603L443.681 108.603L443.681 119.043Z"/>
<path d="M458.903 119.231C459.506 119.231 460.054 119.152 460.546 118.994C461.039 118.836 461.469 118.621 461.835 118.349C462.201 118.078 462.5 117.771 462.733 117.428C462.966 117.086 463.127 116.729 463.216 116.357L463.236 116.275L461.543 116.275L461.507 116.362C461.414 116.591 461.254 116.809 461.026 117.017C460.798 117.225 460.51 117.394 460.161 117.524C459.813 117.654 459.406 117.719 458.942 117.719C458.31 117.719 457.762 117.579 457.298 117.299C456.834 117.019 456.476 116.617 456.224 116.091C455.973 115.566 455.847 114.933 455.847 114.192L455.847 113.523C455.847 112.743 455.976 112.085 456.233 111.55C456.49 111.015 456.84 110.611 457.282 110.337C457.724 110.064 458.225 109.927 458.786 109.927C459.346 109.927 459.842 110.057 460.273 110.318C460.705 110.578 461.043 110.973 461.288 111.502C461.534 112.032 461.656 112.705 461.656 113.523L461.656 114.192L462.5 112.954L454.985 112.954L454.985 114.305L463.363 114.305L463.363 113.65C463.363 112.609 463.18 111.696 462.814 110.91C462.449 110.125 461.925 109.513 461.243 109.074C460.561 108.635 459.745 108.416 458.795 108.416C457.851 108.416 457.027 108.645 456.324 109.103C455.62 109.561 455.076 110.198 454.691 111.013C454.306 111.828 454.113 112.774 454.113 113.852L454.113 113.862C454.113 114.953 454.305 115.901 454.69 116.705C455.074 117.51 455.624 118.132 456.338 118.571C457.053 119.011 457.908 119.231 458.903 119.231Z"/>
<path d="M465.386 119.043L467.085 119.043L467.085 108.603L465.386 108.603L465.386 119.043ZM466.243 106.646C466.563 106.646 466.834 106.533 467.056 106.307C467.278 106.082 467.39 105.812 467.39 105.499C467.39 105.18 467.278 104.909 467.056 104.687C466.834 104.464 466.563 104.353 466.243 104.353C465.93 104.353 465.661 104.464 465.435 104.687C465.21 104.909 465.097 105.18 465.097 105.499C465.097 105.812 465.21 106.082 465.435 106.307C465.661 106.533 465.93 106.646 466.243 106.646Z"/>
<path d="M473.266 119.149C473.435 119.149 473.601 119.139 473.765 119.121C473.928 119.102 474.085 119.081 474.233 119.058L474.233 117.629C474.097 117.64 473.977 117.65 473.873 117.657C473.768 117.664 473.647 117.668 473.508 117.668C472.982 117.668 472.602 117.542 472.368 117.29C472.134 117.039 472.017 116.613 472.017 116.013L472.017 110.01L474.233 110.01L474.233 108.603L472.017 108.603L472.017 105.874L470.259 105.874L470.259 108.603L468.64 108.603L468.64 110.01L470.259 110.01L470.259 116.343C470.259 117.338 470.499 118.054 470.978 118.492C471.458 118.93 472.22 119.149 473.266 119.149Z"/>
<path d="M476.248 119.043L477.947 119.043L477.947 112.884C477.947 112.275 478.059 111.75 478.282 111.308C478.505 110.867 478.82 110.525 479.226 110.283C479.632 110.041 480.111 109.919 480.661 109.919C481.49 109.919 482.11 110.155 482.52 110.628C482.931 111.1 483.136 111.807 483.136 112.75L483.136 119.043L484.835 119.043L484.835 112.367C484.835 111.537 484.69 110.828 484.399 110.239C484.108 109.65 483.689 109.199 483.143 108.886C482.597 108.572 481.938 108.416 481.165 108.416C480.395 108.416 479.755 108.571 479.244 108.883C478.734 109.194 478.344 109.632 478.076 110.195L477.947 110.195L477.947 104.481L476.248 104.481L476.248 119.043Z"/>
<path d="M491.507 119.231C492.11 119.231 492.658 119.152 493.151 118.994C493.643 118.836 494.073 118.621 494.439 118.349C494.805 118.078 495.104 117.771 495.337 117.428C495.57 117.086 495.731 116.729 495.82 116.357L495.84 116.275L494.148 116.275L494.111 116.362C494.018 116.591 493.858 116.809 493.63 117.017C493.402 117.225 493.114 117.394 492.766 117.524C492.417 117.654 492.011 117.719 491.546 117.719C490.914 117.719 490.366 117.579 489.902 117.299C489.438 117.019 489.08 116.617 488.829 116.091C488.577 115.566 488.451 114.933 488.451 114.192L488.451 113.523C488.451 112.743 488.58 112.085 488.837 111.55C489.095 111.015 489.444 110.611 489.886 110.337C490.328 110.064 490.83 109.927 491.39 109.927C491.95 109.927 492.446 110.057 492.878 110.318C493.309 110.578 493.648 110.973 493.893 111.502C494.138 112.032 494.26 112.705 494.26 113.523L494.26 114.192L495.105 112.954L487.589 112.954L487.589 114.305L495.967 114.305L495.967 113.65C495.967 112.609 495.784 111.696 495.419 110.91C495.053 110.125 494.529 109.513 493.847 109.074C493.165 108.635 492.349 108.416 491.4 108.416C490.455 108.416 489.631 108.645 488.928 109.103C488.224 109.561 487.68 110.198 487.295 111.013C486.91 111.828 486.717 112.774 486.717 113.852L486.717 113.862C486.717 114.953 486.91 115.901 487.294 116.705C487.678 117.51 488.228 118.132 488.943 118.571C489.657 119.011 490.512 119.231 491.507 119.231Z"/>
<path d="M497.935 119.043L499.634 119.043L499.634 112.579C499.634 112.065 499.746 111.618 499.97 111.238C500.194 110.857 500.504 110.562 500.9 110.352C501.295 110.142 501.751 110.037 502.267 110.037C502.46 110.037 502.64 110.045 502.806 110.062C502.972 110.079 503.13 110.103 503.28 110.134L503.28 108.484C503.2 108.471 503.084 108.456 502.934 108.44C502.784 108.424 502.629 108.416 502.469 108.416C501.792 108.416 501.22 108.573 500.754 108.888C500.287 109.204 499.957 109.642 499.763 110.203L499.634 110.203L499.634 108.603L497.935 108.603L497.935 119.043Z"/>
<path d="M512.484 119.231C512.955 119.231 513.39 119.162 513.789 119.024C514.189 118.886 514.547 118.684 514.865 118.42C515.184 118.156 515.45 117.838 515.665 117.467L515.794 117.467L515.794 119.043L517.493 119.043L517.493 111.88C517.493 111.163 517.337 110.545 517.026 110.028C516.714 109.51 516.262 109.111 515.67 108.833C515.077 108.555 514.358 108.416 513.512 108.416C512.753 108.416 512.081 108.536 511.497 108.776C510.912 109.016 510.441 109.348 510.082 109.772C509.723 110.195 509.503 110.684 509.421 111.239L509.411 111.309L511.097 111.309L511.109 111.266C511.236 110.845 511.502 110.516 511.905 110.277C512.307 110.039 512.827 109.919 513.463 109.919C514.232 109.919 514.813 110.092 515.205 110.437C515.598 110.782 515.794 111.276 515.794 111.919L515.794 115.133C515.794 115.632 515.666 116.079 515.411 116.474C515.155 116.87 514.805 117.182 514.361 117.412C513.917 117.641 513.411 117.756 512.843 117.756C512.231 117.756 511.727 117.609 511.332 117.315C510.937 117.021 510.739 116.613 510.739 116.09L510.739 116.07C510.739 115.56 510.924 115.162 511.293 114.875C511.663 114.589 512.233 114.424 513.005 114.38L516.644 114.15L516.644 112.802L512.802 113.032C511.592 113.102 510.656 113.4 509.994 113.928C509.332 114.455 509.001 115.18 509.001 116.1L509.001 116.12C509.001 116.752 509.152 117.301 509.455 117.768C509.759 118.235 510.173 118.596 510.698 118.85C511.223 119.104 511.819 119.231 512.484 119.231Z"/>
<path d="M524.252 122.731C525.2 122.731 526.022 122.572 526.717 122.255C527.412 121.938 527.949 121.489 528.326 120.909C528.703 120.328 528.891 119.647 528.891 118.864L528.891 108.603L527.192 108.603L527.192 110.337L527.093 110.337C526.88 109.944 526.613 109.605 526.292 109.319C525.972 109.032 525.604 108.81 525.191 108.652C524.777 108.494 524.325 108.416 523.833 108.416C522.929 108.416 522.146 108.634 521.485 109.071C520.824 109.508 520.312 110.111 519.949 110.879C519.587 111.647 519.405 112.531 519.405 113.531L519.405 113.548C519.405 114.548 519.584 115.432 519.943 116.199C520.302 116.966 520.81 117.566 521.468 117.999C522.126 118.432 522.901 118.648 523.794 118.648C524.277 118.648 524.727 118.577 525.143 118.434C525.559 118.291 525.931 118.083 526.26 117.809C526.589 117.536 526.862 117.208 527.078 116.825L527.207 116.825L527.207 118.758C527.207 119.536 526.947 120.142 526.426 120.576C525.905 121.01 525.179 121.227 524.248 121.227C523.508 121.227 522.909 121.104 522.451 120.857C521.993 120.611 521.71 120.293 521.602 119.904L521.585 119.875L519.839 119.875L519.828 119.904C519.924 120.46 520.16 120.951 520.536 121.378C520.912 121.805 521.414 122.137 522.044 122.374C522.673 122.612 523.409 122.731 524.252 122.731ZM524.165 117.144C523.526 117.144 522.982 116.993 522.532 116.69C522.081 116.388 521.737 115.967 521.5 115.427C521.262 114.888 521.143 114.262 521.143 113.548L521.143 113.531C521.143 112.821 521.262 112.194 521.5 111.65C521.737 111.107 522.081 110.682 522.532 110.377C522.982 110.072 523.526 109.919 524.165 109.919C524.797 109.919 525.343 110.072 525.802 110.378C526.26 110.684 526.614 111.109 526.863 111.653C527.112 112.196 527.237 112.822 527.237 113.531L527.237 113.548C527.237 114.257 527.112 114.882 526.863 115.422C526.614 115.962 526.261 116.384 525.803 116.688C525.345 116.992 524.799 117.144 524.165 117.144Z"/>
<path d="M531.378 119.043L533.077 119.043L533.077 112.579C533.077 112.065 533.189 111.618 533.413 111.238C533.636 110.857 533.946 110.562 534.342 110.352C534.738 110.142 535.194 110.037 535.709 110.037C535.903 110.037 536.083 110.045 536.249 110.062C536.415 110.079 536.573 110.103 536.722 110.134L536.722 108.484C536.642 108.471 536.527 108.456 536.377 108.44C536.226 108.424 536.071 108.416 535.912 108.416C535.234 108.416 534.663 108.573 534.196 108.888C533.73 109.204 533.4 109.642 533.205 110.203L533.077 110.203L533.077 108.603L531.378 108.603L531.378 119.043Z"/>
<path d="M542.132 119.231C542.735 119.231 543.283 119.152 543.775 118.994C544.268 118.836 544.697 118.621 545.064 118.349C545.43 118.078 545.729 117.771 545.962 117.428C546.194 117.086 546.356 116.729 546.445 116.357L546.465 116.275L544.772 116.275L544.736 116.362C544.643 116.591 544.483 116.809 544.255 117.017C544.027 117.225 543.739 117.394 543.39 117.524C543.042 117.654 542.635 117.719 542.171 117.719C541.539 117.719 540.991 117.579 540.527 117.299C540.063 117.019 539.705 116.617 539.453 116.091C539.202 115.566 539.076 114.933 539.076 114.192L539.076 113.523C539.076 112.743 539.205 112.085 539.462 111.55C539.719 111.015 540.069 110.611 540.511 110.337C540.953 110.064 541.454 109.927 542.015 109.927C542.575 109.927 543.071 110.057 543.502 110.318C543.934 110.578 544.272 110.973 544.517 111.502C544.762 112.032 544.885 112.705 544.885 113.523L544.885 114.192L545.729 112.954L538.214 112.954L538.214 114.305L546.592 114.305L546.592 113.65C546.592 112.609 546.409 111.696 546.043 110.91C545.678 110.125 545.154 109.513 544.472 109.074C543.79 108.635 542.974 108.416 542.024 108.416C541.08 108.416 540.256 108.645 539.553 109.103C538.849 109.561 538.305 110.198 537.92 111.013C537.535 111.828 537.342 112.774 537.342 113.852L537.342 113.862C537.342 114.953 537.534 115.901 537.919 116.705C538.303 117.51 538.852 118.132 539.567 118.571C540.282 119.011 541.137 119.231 542.132 119.231Z"/>
<path d="M552.829 119.231C553.432 119.231 553.98 119.152 554.473 118.994C554.965 118.836 555.395 118.621 555.761 118.349C556.127 118.078 556.426 117.771 556.659 117.428C556.892 117.086 557.053 116.729 557.143 116.357L557.162 116.275L555.47 116.275L555.433 116.362C555.34 116.591 555.18 116.809 554.952 117.017C554.724 117.225 554.436 117.394 554.088 117.524C553.739 117.654 553.333 117.719 552.868 117.719C552.236 117.719 551.688 117.579 551.224 117.299C550.76 117.019 550.402 116.617 550.151 116.091C549.899 115.566 549.773 114.933 549.773 114.192L549.773 113.523C549.773 112.743 549.902 112.085 550.159 111.55C550.417 111.015 550.766 110.611 551.208 110.337C551.65 110.064 552.152 109.927 552.712 109.927C553.272 109.927 553.768 110.057 554.2 110.318C554.631 110.578 554.97 110.973 555.215 111.502C555.46 112.032 555.582 112.705 555.582 113.523L555.582 114.192L556.427 112.954L548.911 112.954L548.911 114.305L557.289 114.305L557.289 113.65C557.289 112.609 557.106 111.696 556.741 110.91C556.375 110.125 555.851 109.513 555.169 109.074C554.487 108.635 553.671 108.416 552.722 108.416C551.777 108.416 550.953 108.645 550.25 109.103C549.546 109.561 549.002 110.198 548.617 111.013C548.232 111.828 548.039 112.774 548.039 113.852L548.039 113.862C548.039 114.953 548.232 115.901 548.616 116.705C549 117.51 549.55 118.132 550.265 118.571C550.979 119.011 551.834 119.231 552.829 119.231Z"/>
<path d="M446.993 142.91L448.693 142.91L448.693 136.74C448.693 136.13 448.804 135.606 449.027 135.166C449.25 134.727 449.565 134.387 449.972 134.147C450.379 133.907 450.86 133.787 451.414 133.787C452.24 133.787 452.851 134.014 453.249 134.468C453.646 134.923 453.844 135.61 453.844 136.532L453.844 142.91L455.544 142.91L455.544 136.147C455.544 134.918 455.229 133.967 454.599 133.293C453.968 132.62 453.069 132.283 451.901 132.283C451.128 132.283 450.489 132.437 449.983 132.747C449.477 133.056 449.09 133.48 448.821 134.02L448.693 134.02L448.693 132.471L446.993 132.471L446.993 142.91Z"/>
<path d="M462.245 143.098C463.232 143.098 464.085 142.879 464.803 142.442C465.521 142.005 466.077 141.383 466.47 140.575C466.864 139.767 467.061 138.808 467.061 137.698L467.061 137.678C467.061 136.563 466.864 135.602 466.47 134.795C466.077 133.988 465.52 133.367 464.801 132.934C464.083 132.5 463.23 132.283 462.242 132.283C461.262 132.283 460.411 132.5 459.689 132.934C458.968 133.367 458.411 133.988 458.017 134.795C457.623 135.602 457.426 136.563 457.426 137.678L457.426 137.698C457.426 138.807 457.623 139.765 458.017 140.574C458.411 141.382 458.968 142.005 459.689 142.442C460.411 142.879 461.263 143.098 462.245 143.098ZM462.247 141.594C461.598 141.594 461.045 141.44 460.586 141.131C460.128 140.822 459.776 140.378 459.531 139.797C459.287 139.217 459.164 138.517 459.164 137.698L459.164 137.678C459.164 136.854 459.287 136.153 459.531 135.574C459.776 134.995 460.128 134.552 460.586 134.246C461.045 133.94 461.597 133.787 462.242 133.787C462.891 133.787 463.445 133.939 463.903 134.245C464.361 134.55 464.713 134.993 464.957 135.572C465.201 136.152 465.323 136.854 465.323 137.678L465.323 137.698C465.323 138.517 465.201 139.217 464.957 139.797C464.713 140.378 464.362 140.822 463.905 141.131C463.448 141.44 462.896 141.594 462.247 141.594Z"/>
<path d="M469.03 142.91L470.729 142.91L470.729 136.447C470.729 135.932 470.841 135.485 471.065 135.105C471.288 134.725 471.598 134.429 471.994 134.219C472.39 134.009 472.846 133.904 473.361 133.904C473.555 133.904 473.735 133.912 473.901 133.929C474.067 133.946 474.225 133.97 474.374 134.001L474.374 132.351C474.294 132.338 474.179 132.323 474.029 132.307C473.878 132.291 473.723 132.283 473.564 132.283C472.886 132.283 472.314 132.44 471.848 132.756C471.382 133.071 471.051 133.509 470.857 134.07L470.729 134.07L470.729 132.471L469.03 132.471L469.03 142.91Z"/>
<path d="M484.54 143.098C485.274 143.098 485.922 142.932 486.485 142.6C487.048 142.268 487.488 141.809 487.807 141.221L487.936 141.221L487.936 142.91L489.635 142.91L489.635 128.349L487.936 128.349L487.936 134.14L487.807 134.14C487.513 133.574 487.074 133.123 486.491 132.787C485.907 132.451 485.254 132.283 484.533 132.283C483.652 132.283 482.883 132.505 482.226 132.951C481.569 133.396 481.059 134.023 480.695 134.83C480.331 135.638 480.149 136.588 480.149 137.681L480.149 137.698C480.149 138.785 480.33 139.735 480.694 140.546C481.057 141.356 481.568 141.985 482.228 142.43C482.889 142.875 483.659 143.098 484.54 143.098ZM484.917 141.594C484.288 141.594 483.747 141.438 483.293 141.125C482.84 140.812 482.492 140.364 482.25 139.78C482.008 139.196 481.887 138.502 481.887 137.698L481.887 137.681C481.887 136.871 482.008 136.176 482.25 135.597C482.492 135.017 482.84 134.57 483.293 134.257C483.747 133.943 484.288 133.787 484.917 133.787C485.539 133.787 486.079 133.945 486.536 134.263C486.993 134.58 487.346 135.029 487.595 135.61C487.844 136.19 487.968 136.881 487.968 137.681L487.968 137.698C487.968 138.493 487.844 139.182 487.596 139.766C487.348 140.35 486.995 140.8 486.537 141.118C486.08 141.435 485.539 141.594 484.917 141.594Z"/>
<path d="M492.274 142.91L493.974 142.91L493.974 132.471L492.274 132.471L492.274 142.91ZM493.132 130.513C493.451 130.513 493.722 130.4 493.944 130.175C494.167 129.949 494.278 129.68 494.278 129.367C494.278 129.047 494.167 128.776 493.944 128.554C493.722 128.331 493.451 128.22 493.132 128.22C492.819 128.22 492.549 128.331 492.324 128.554C492.098 128.776 491.985 129.047 491.985 129.367C491.985 129.68 492.098 129.949 492.324 130.175C492.549 130.4 492.819 130.513 493.132 130.513Z"/>
<path d="M500.129 143.098C500.919 143.098 501.626 142.966 502.252 142.701C502.877 142.436 503.372 142.068 503.736 141.594C504.1 141.121 504.283 140.576 504.283 139.959L504.283 139.942C504.283 139.194 504.048 138.598 503.579 138.152C503.11 137.707 502.377 137.363 501.378 137.121L499.759 136.73C499.154 136.583 498.716 136.392 498.444 136.156C498.171 135.92 498.035 135.625 498.035 135.27L498.035 135.253C498.035 134.943 498.126 134.672 498.308 134.44C498.49 134.208 498.741 134.027 499.06 133.895C499.379 133.764 499.747 133.699 500.162 133.699C500.798 133.699 501.311 133.834 501.702 134.103C502.092 134.373 502.337 134.725 502.437 135.16L502.439 135.176L504.098 135.176L504.095 135.146C504.026 134.575 503.822 134.074 503.481 133.644C503.14 133.214 502.688 132.88 502.123 132.641C501.557 132.402 500.906 132.283 500.169 132.283C499.43 132.283 498.768 132.415 498.182 132.678C497.597 132.942 497.136 133.304 496.8 133.763C496.465 134.222 496.297 134.745 496.297 135.331L496.297 135.34C496.297 136.089 496.529 136.691 496.993 137.145C497.456 137.599 498.177 137.942 499.154 138.175L500.78 138.566C501.414 138.719 501.867 138.917 502.138 139.161C502.409 139.405 502.544 139.707 502.544 140.066L502.544 140.083C502.544 140.399 502.444 140.677 502.243 140.917C502.043 141.156 501.766 141.344 501.413 141.479C501.06 141.614 500.648 141.682 500.176 141.682C499.5 141.682 498.958 141.547 498.549 141.276C498.14 141.005 497.869 140.643 497.735 140.19L497.73 140.167L496.001 140.167L496.003 140.188C496.07 140.773 496.281 141.284 496.636 141.72C496.991 142.156 497.466 142.494 498.06 142.736C498.655 142.977 499.344 143.098 500.129 143.098Z"/>
<path d="M509.172 143.098C509.642 143.098 510.077 143.029 510.477 142.891C510.876 142.753 511.235 142.552 511.553 142.287C511.871 142.023 512.138 141.705 512.353 141.334L512.481 141.334L512.481 142.91L514.181 142.91L514.181 135.747C514.181 135.03 514.025 134.413 513.713 133.895C513.402 133.377 512.95 132.979 512.357 132.7C511.764 132.422 511.045 132.283 510.2 132.283C509.44 132.283 508.768 132.403 508.184 132.643C507.6 132.884 507.128 133.215 506.769 133.639C506.411 134.062 506.19 134.551 506.109 135.106L506.099 135.176L507.784 135.176L507.796 135.133C507.924 134.712 508.189 134.383 508.592 134.144C508.995 133.906 509.514 133.787 510.15 133.787C510.92 133.787 511.501 133.959 511.893 134.304C512.285 134.649 512.481 135.143 512.481 135.786L512.481 139.001C512.481 139.499 512.353 139.946 512.098 140.341C511.842 140.737 511.493 141.049 511.049 141.279C510.605 141.509 510.099 141.623 509.53 141.623C508.918 141.623 508.414 141.476 508.019 141.182C507.624 140.889 507.427 140.48 507.427 139.957L507.427 139.937C507.427 139.427 507.611 139.029 507.981 138.743C508.35 138.456 508.92 138.291 509.692 138.247L513.331 138.017L513.331 136.669L509.489 136.899C508.279 136.969 507.343 137.268 506.681 137.795C506.019 138.323 505.688 139.047 505.688 139.967L505.688 139.987C505.688 140.619 505.84 141.168 506.143 141.635C506.446 142.103 506.86 142.463 507.385 142.717C507.911 142.971 508.506 143.098 509.172 143.098Z"/>
<path d="M520.94 146.598C521.887 146.598 522.709 146.439 523.404 146.122C524.1 145.805 524.636 145.356 525.013 144.776C525.39 144.196 525.579 143.514 525.579 142.731L525.579 132.471L523.879 132.471L523.879 134.204L523.781 134.204C523.567 133.812 523.3 133.472 522.98 133.186C522.659 132.899 522.292 132.677 521.878 132.519C521.465 132.362 521.012 132.283 520.52 132.283C519.616 132.283 518.834 132.501 518.173 132.938C517.512 133.375 517 133.978 516.637 134.746C516.274 135.514 516.092 136.398 516.092 137.398L516.092 137.415C516.092 138.415 516.272 139.299 516.631 140.066C516.99 140.833 517.498 141.433 518.156 141.866C518.813 142.299 519.589 142.516 520.481 142.516C520.965 142.516 521.414 142.444 521.83 142.301C522.246 142.158 522.618 141.95 522.947 141.676C523.276 141.403 523.549 141.075 523.766 140.692L523.894 140.692L523.894 142.625C523.894 143.403 523.634 144.009 523.113 144.443C522.593 144.877 521.867 145.094 520.935 145.094C520.195 145.094 519.596 144.971 519.138 144.725C518.68 144.478 518.397 144.16 518.289 143.771L518.272 143.743L516.526 143.743L516.516 143.771C516.612 144.327 516.847 144.818 517.223 145.245C517.599 145.672 518.102 146.004 518.731 146.242C519.36 146.479 520.096 146.598 520.94 146.598ZM520.852 141.012C520.214 141.012 519.669 140.86 519.219 140.558C518.769 140.255 518.425 139.834 518.187 139.295C517.95 138.755 517.831 138.129 517.831 137.415L517.831 137.398C517.831 136.688 517.95 136.061 518.187 135.517C518.425 134.974 518.769 134.55 519.219 134.244C519.669 133.939 520.214 133.787 520.852 133.787C521.485 133.787 522.03 133.94 522.489 134.246C522.948 134.552 523.301 134.976 523.551 135.52C523.8 136.063 523.924 136.689 523.924 137.398L523.924 137.415C523.924 138.124 523.8 138.749 523.551 139.289C523.301 139.829 522.948 140.251 522.49 140.555C522.032 140.86 521.486 141.012 520.852 141.012Z"/>
<path d="M528.065 142.91L529.764 142.91L529.764 136.447C529.764 135.932 529.876 135.485 530.1 135.105C530.324 134.725 530.634 134.429 531.029 134.219C531.425 134.009 531.881 133.904 532.397 133.904C532.59 133.904 532.77 133.912 532.936 133.929C533.102 133.946 533.26 133.97 533.41 134.001L533.41 132.351C533.33 132.338 533.214 132.323 533.064 132.307C532.914 132.291 532.759 132.283 532.599 132.283C531.922 132.283 531.35 132.44 530.884 132.756C530.417 133.071 530.087 133.509 529.893 134.07L529.764 134.07L529.764 132.471L528.065 132.471L528.065 142.91Z"/>
<path d="M538.819 143.098C539.422 143.098 539.97 143.019 540.463 142.861C540.955 142.703 541.385 142.488 541.751 142.216C542.117 141.945 542.417 141.638 542.649 141.296C542.882 140.953 543.043 140.596 543.133 140.224L543.152 140.142L541.46 140.142L541.423 140.23C541.33 140.458 541.17 140.676 540.942 140.884C540.714 141.092 540.426 141.261 540.078 141.391C539.729 141.522 539.323 141.587 538.858 141.587C538.226 141.587 537.678 141.447 537.214 141.166C536.75 140.886 536.392 140.484 536.141 139.958C535.889 139.433 535.763 138.8 535.763 138.059L535.763 137.39C535.763 136.61 535.892 135.952 536.149 135.417C536.407 134.882 536.756 134.478 537.198 134.204C537.641 133.931 538.142 133.794 538.702 133.794C539.262 133.794 539.758 133.924 540.19 134.185C540.621 134.445 540.96 134.84 541.205 135.37C541.45 135.899 541.572 136.572 541.572 137.39L541.572 138.059L542.417 136.821L534.902 136.821L534.902 138.172L543.279 138.172L543.279 137.517C543.279 136.476 543.096 135.563 542.731 134.778C542.365 133.992 541.841 133.38 541.159 132.941C540.477 132.502 539.661 132.283 538.712 132.283C537.767 132.283 536.943 132.512 536.24 132.97C535.537 133.429 534.992 134.065 534.607 134.88C534.222 135.695 534.03 136.642 534.03 137.72L534.03 137.729C534.03 138.82 534.222 139.768 534.606 140.573C534.99 141.377 535.54 141.999 536.255 142.439C536.969 142.878 537.824 143.098 538.819 143.098Z"/>
<path d="M549.516 143.098C550.12 143.098 550.667 143.019 551.16 142.861C551.653 142.703 552.082 142.488 552.448 142.216C552.814 141.945 553.114 141.638 553.347 141.296C553.579 140.953 553.74 140.596 553.83 140.224L553.849 140.142L552.157 140.142L552.12 140.23C552.028 140.458 551.867 140.676 551.64 140.884C551.412 141.092 551.124 141.261 550.775 141.391C550.427 141.522 550.02 141.587 549.555 141.587C548.924 141.587 548.376 141.447 547.912 141.166C547.447 140.886 547.09 140.484 546.838 139.958C546.586 139.433 546.461 138.8 546.461 138.059L546.461 137.39C546.461 136.61 546.589 135.952 546.847 135.417C547.104 134.882 547.454 134.478 547.896 134.204C548.338 133.931 548.839 133.794 549.399 133.794C549.96 133.794 550.455 133.924 550.887 134.185C551.319 134.445 551.657 134.84 551.902 135.37C552.147 135.899 552.27 136.572 552.27 137.39L552.27 138.059L553.114 136.821L545.599 136.821L545.599 138.172L553.976 138.172L553.976 137.517C553.976 136.476 553.794 135.563 553.428 134.778C553.063 133.992 552.539 133.38 551.856 132.941C551.174 132.502 550.358 132.283 549.409 132.283C548.465 132.283 547.641 132.512 546.937 132.97C546.234 133.429 545.69 134.065 545.304 134.88C544.919 135.695 544.727 136.642 544.727 137.72L544.727 137.729C544.727 138.82 544.919 139.768 545.303 140.573C545.688 141.377 546.237 141.999 546.952 142.439C547.667 142.878 548.522 143.098 549.516 143.098Z"/>
</g>
<g fill="#000000" opacity="1" stroke="none">
<path d="M674.078 119.231C674.868 119.231 675.576 119.098 676.201 118.834C676.827 118.569 677.322 118.2 677.686 117.727C678.05 117.254 678.232 116.709 678.232 116.092L678.232 116.074C678.232 115.327 677.998 114.73 677.529 114.285C677.06 113.84 676.326 113.496 675.327 113.253L673.709 112.863C673.104 112.716 672.666 112.525 672.393 112.289C672.121 112.053 671.985 111.757 671.985 111.402L671.985 111.385C671.985 111.076 672.076 110.805 672.258 110.573C672.44 110.341 672.69 110.159 673.01 110.028C673.329 109.897 673.696 109.832 674.111 109.832C674.748 109.832 675.261 109.966 675.651 110.236C676.042 110.506 676.287 110.858 676.387 111.293L676.389 111.309L678.047 111.309L678.045 111.279C677.976 110.708 677.771 110.207 677.431 109.777C677.09 109.347 676.637 109.013 676.072 108.774C675.507 108.535 674.856 108.416 674.119 108.416C673.38 108.416 672.717 108.547 672.132 108.811C671.546 109.075 671.086 109.437 670.75 109.896C670.415 110.355 670.247 110.878 670.247 111.463L670.247 111.473C670.247 112.222 670.479 112.824 670.942 113.278C671.406 113.732 672.126 114.075 673.103 114.308L674.73 114.699C675.364 114.852 675.816 115.05 676.087 115.294C676.358 115.538 676.494 115.839 676.494 116.199L676.494 116.216C676.494 116.532 676.394 116.81 676.193 117.049C675.992 117.289 675.716 117.476 675.363 117.612C675.01 117.747 674.597 117.815 674.125 117.815C673.45 117.815 672.908 117.679 672.499 117.409C672.09 117.138 671.819 116.776 671.685 116.323L671.68 116.3L669.951 116.3L669.953 116.32C670.02 116.906 670.231 117.417 670.586 117.853C670.941 118.288 671.416 118.627 672.01 118.869C672.605 119.11 673.294 119.231 674.078 119.231Z"/>
<path d="M680.307 119.043L682.007 119.043L682.007 104.481L680.307 104.481L680.307 119.043Z"/>
<path d="M684.646 119.043L686.345 119.043L686.345 108.603L684.646 108.603L684.646 119.043ZM685.503 106.646C685.822 106.646 686.093 106.533 686.316 106.307C686.538 106.082 686.649 105.812 686.649 105.499C686.649 105.18 686.538 104.909 686.316 104.687C686.093 104.464 685.822 104.353 685.503 104.353C685.19 104.353 684.921 104.464 684.695 104.687C684.469 104.909 684.356 105.18 684.356 105.499C684.356 105.812 684.469 106.082 684.695 106.307C684.921 106.533 685.19 106.646 685.503 106.646Z"/>
<path d="M693.216 122.731C694.164 122.731 694.985 122.572 695.681 122.255C696.376 121.938 696.912 121.489 697.289 120.909C697.666 120.328 697.855 119.647 697.855 118.864L697.855 108.603L696.156 108.603L696.156 110.337L696.057 110.337C695.844 109.944 695.576 109.605 695.256 109.319C694.935 109.032 694.568 108.81 694.154 108.652C693.741 108.494 693.288 108.416 692.796 108.416C691.892 108.416 691.11 108.634 690.449 109.071C689.788 109.508 689.276 110.111 688.913 110.879C688.55 111.647 688.369 112.531 688.369 113.531L688.369 113.548C688.369 114.548 688.548 115.432 688.907 116.199C689.266 116.966 689.774 117.566 690.432 117.999C691.089 118.432 691.865 118.648 692.757 118.648C693.241 118.648 693.69 118.577 694.106 118.434C694.522 118.291 694.894 118.083 695.223 117.809C695.552 117.536 695.825 117.208 696.042 116.825L696.171 116.825L696.171 118.758C696.171 119.536 695.91 120.142 695.39 120.576C694.869 121.01 694.143 121.227 693.211 121.227C692.471 121.227 691.872 121.104 691.414 120.857C690.956 120.611 690.673 120.293 690.565 119.904L690.548 119.875L688.802 119.875L688.792 119.904C688.888 120.46 689.123 120.951 689.499 121.378C689.875 121.805 690.378 122.137 691.007 122.374C691.636 122.612 692.372 122.731 693.216 122.731ZM693.128 117.144C692.49 117.144 691.945 116.993 691.495 116.69C691.045 116.388 690.701 115.967 690.463 115.427C690.226 114.888 690.107 114.262 690.107 113.548L690.107 113.531C690.107 112.821 690.226 112.194 690.463 111.65C690.701 111.107 691.045 110.682 691.495 110.377C691.945 110.072 692.49 109.919 693.128 109.919C693.761 109.919 694.306 110.072 694.765 110.378C695.224 110.684 695.577 111.109 695.827 111.653C696.076 112.196 696.2 112.822 696.2 113.531L696.2 113.548C696.2 114.257 696.076 114.882 695.827 115.422C695.577 115.962 695.224 116.384 694.766 116.688C694.308 116.992 693.763 117.144 693.128 117.144Z"/>
<path d="M700.436 119.043L702.136 119.043L702.136 112.884C702.136 112.275 702.247 111.75 702.47 111.308C702.693 110.867 703.008 110.525 703.414 110.283C703.821 110.041 704.299 109.919 704.85 109.919C705.679 109.919 706.299 110.155 706.709 110.628C707.119 111.1 707.325 111.807 707.325 112.75L707.325 119.043L709.024 119.043L709.024 112.367C709.024 111.537 708.878 110.828 708.587 110.239C708.296 109.65 707.878 109.199 707.331 108.886C706.785 108.572 706.126 108.416 705.354 108.416C704.584 108.416 703.943 108.571 703.433 108.883C702.922 109.194 702.533 109.632 702.264 110.195L702.136 110.195L702.136 104.481L700.436 104.481L700.436 119.043Z"/>
<path d="M715.063 119.149C715.232 119.149 715.398 119.139 715.562 119.121C715.725 119.102 715.882 119.081 716.031 119.058L716.031 117.629C715.894 117.64 715.774 117.65 715.67 117.657C715.565 117.664 715.444 117.668 715.305 117.668C714.779 117.668 714.4 117.542 714.165 117.29C713.931 117.039 713.814 116.613 713.814 116.013L713.814 110.01L716.031 110.01L716.031 108.603L713.814 108.603L713.814 105.874L712.056 105.874L712.056 108.603L710.437 108.603L710.437 110.01L712.056 110.01L712.056 116.343C712.056 117.338 712.296 118.054 712.775 118.492C713.255 118.93 714.017 119.149 715.063 119.149Z"/>
<path d="M718.045 119.043L719.744 119.043L719.744 104.481L718.045 104.481L718.045 119.043Z"/>
<path d="M723.245 122.67C723.867 122.67 724.391 122.578 724.817 122.395C725.242 122.213 725.611 121.904 725.923 121.469C726.235 121.034 726.531 120.439 726.812 119.685L730.888 108.603L729.101 108.603L725.938 118.122L726.538 117.217L725.807 117.217L726.407 118.122L723.238 108.603L721.422 108.603L725.288 119.053L725.091 119.666C724.899 120.264 724.647 120.68 724.334 120.913C724.022 121.147 723.618 121.264 723.122 121.264C723.008 121.264 722.893 121.26 722.776 121.251C722.659 121.243 722.553 121.23 722.456 121.212L722.456 122.607C722.572 122.626 722.702 122.641 722.845 122.653C722.989 122.664 723.122 122.67 723.245 122.67Z"/>
<path d="M679.537 143.098C680.008 143.098 680.443 143.029 680.842 142.891C681.242 142.753 681.6 142.552 681.918 142.287C682.236 142.023 682.503 141.705 682.718 141.334L682.847 141.334L682.847 142.91L684.546 142.91L684.546 135.747C684.546 135.03 684.39 134.413 684.079 133.895C683.767 133.377 683.315 132.979 682.722 132.7C682.13 132.422 681.411 132.283 680.565 132.283C679.806 132.283 679.134 132.403 678.549 132.643C677.965 132.884 677.493 133.215 677.135 133.639C676.776 134.062 676.556 134.551 676.474 135.106L676.464 135.176L678.15 135.176L678.162 135.133C678.289 134.712 678.554 134.383 678.957 134.144C679.36 133.906 679.88 133.787 680.516 133.787C681.285 133.787 681.866 133.959 682.258 134.304C682.651 134.649 682.847 135.143 682.847 135.786L682.847 139.001C682.847 139.499 682.719 139.946 682.463 140.341C682.208 140.737 681.858 141.049 681.414 141.279C680.97 141.509 680.464 141.623 679.895 141.623C679.283 141.623 678.78 141.476 678.385 141.182C677.99 140.889 677.792 140.48 677.792 139.957L677.792 139.937C677.792 139.427 677.977 139.029 678.346 138.743C678.715 138.456 679.286 138.291 680.057 138.247L683.696 138.017L683.696 136.669L679.855 136.899C678.645 136.969 677.708 137.268 677.047 137.795C676.385 138.323 676.054 139.047 676.054 139.967L676.054 139.987C676.054 140.619 676.205 141.168 676.508 141.635C676.811 142.103 677.226 142.463 677.751 142.717C678.276 142.971 678.871 143.098 679.537 143.098Z"/>
<path d="M691.305 146.598C692.253 146.598 693.075 146.439 693.77 146.122C694.465 145.805 695.002 145.356 695.379 144.776C695.756 144.196 695.944 143.514 695.944 142.731L695.944 132.471L694.245 132.471L694.245 134.204L694.146 134.204C693.933 133.812 693.666 133.472 693.345 133.186C693.024 132.899 692.657 132.677 692.244 132.519C691.83 132.362 691.377 132.283 690.886 132.283C689.982 132.283 689.199 132.501 688.538 132.938C687.877 133.375 687.365 133.978 687.002 134.746C686.639 135.514 686.458 136.398 686.458 137.398L686.458 137.415C686.458 138.415 686.637 139.299 686.996 140.066C687.355 140.833 687.863 141.433 688.521 141.866C689.179 142.299 689.954 142.516 690.847 142.516C691.33 142.516 691.78 142.444 692.195 142.301C692.611 142.158 692.984 141.95 693.313 141.676C693.642 141.403 693.914 141.075 694.131 140.692L694.26 140.692L694.26 142.625C694.26 143.403 694 144.009 693.479 144.443C692.958 144.877 692.232 145.094 691.3 145.094C690.561 145.094 689.962 144.971 689.504 144.725C689.046 144.478 688.763 144.16 688.655 143.771L688.638 143.743L686.892 143.743L686.881 143.771C686.977 144.327 687.213 144.818 687.589 145.245C687.965 145.672 688.467 146.004 689.096 146.242C689.726 146.479 690.462 146.598 691.305 146.598ZM691.218 141.012C690.579 141.012 690.035 140.86 689.584 140.558C689.134 140.255 688.79 139.834 688.553 139.295C688.315 138.755 688.196 138.129 688.196 137.415L688.196 137.398C688.196 136.688 688.315 136.061 688.553 135.517C688.79 134.974 689.134 134.55 689.584 134.244C690.035 133.939 690.579 133.787 691.218 133.787C691.85 133.787 692.396 133.94 692.854 134.246C693.313 134.552 693.667 134.976 693.916 135.52C694.165 136.063 694.29 136.689 694.29 137.398L694.29 137.415C694.29 138.124 694.165 138.749 693.916 139.289C693.667 139.829 693.313 140.251 692.856 140.555C692.398 140.86 691.852 141.012 691.218 141.012Z"/>
<path d="M698.43 142.91L700.13 142.91L700.13 136.447C700.13 135.932 700.242 135.485 700.465 135.105C700.689 134.725 700.999 134.429 701.395 134.219C701.791 134.009 702.247 133.904 702.762 133.904C702.956 133.904 703.136 133.912 703.302 133.929C703.468 133.946 703.625 133.97 703.775 134.001L703.775 132.351C703.695 132.338 703.58 132.323 703.429 132.307C703.279 132.291 703.124 132.283 702.965 132.283C702.287 132.283 701.715 132.44 701.249 132.756C700.783 133.071 700.452 133.509 700.258 134.07L700.13 134.07L700.13 132.471L698.43 132.471L698.43 142.91Z"/>
<path d="M709.185 143.098C709.788 143.098 710.336 143.019 710.828 142.861C711.321 142.703 711.75 142.488 712.116 142.216C712.483 141.945 712.782 141.638 713.015 141.296C713.247 140.953 713.408 140.596 713.498 140.224L713.518 140.142L711.825 140.142L711.788 140.23C711.696 140.458 711.536 140.676 711.308 140.884C711.08 141.092 710.792 141.261 710.443 141.391C710.095 141.522 709.688 141.587 709.224 141.587C708.592 141.587 708.044 141.447 707.58 141.166C707.116 140.886 706.758 140.484 706.506 139.958C706.254 139.433 706.129 138.8 706.129 138.059L706.129 137.39C706.129 136.61 706.257 135.952 706.515 135.417C706.772 134.882 707.122 134.478 707.564 134.204C708.006 133.931 708.507 133.794 709.067 133.794C709.628 133.794 710.124 133.924 710.555 134.185C710.987 134.445 711.325 134.84 711.57 135.37C711.815 135.899 711.938 136.572 711.938 137.39L711.938 138.059L712.782 136.821L705.267 136.821L705.267 138.172L713.645 138.172L713.645 137.517C713.645 136.476 713.462 135.563 713.096 134.778C712.731 133.992 712.207 133.38 711.525 132.941C710.842 132.502 710.027 132.283 709.077 132.283C708.133 132.283 707.309 132.512 706.605 132.97C705.902 133.429 705.358 134.065 704.973 134.88C704.588 135.695 704.395 136.642 704.395 137.72L704.395 137.729C704.395 138.82 704.587 139.768 704.971 140.573C705.356 141.377 705.905 141.999 706.62 142.439C707.335 142.878 708.19 143.098 709.185 143.098Z"/>
<path d="M719.882 143.098C720.485 143.098 721.033 143.019 721.526 142.861C722.018 142.703 722.448 142.488 722.814 142.216C723.18 141.945 723.479 141.638 723.712 141.296C723.945 140.953 724.106 140.596 724.195 140.224L724.215 140.142L722.523 140.142L722.486 140.23C722.393 140.458 722.233 140.676 722.005 140.884C721.777 141.092 721.489 141.261 721.14 141.391C720.792 141.522 720.386 141.587 719.921 141.587C719.289 141.587 718.741 141.447 718.277 141.166C717.813 140.886 717.455 140.484 717.203 139.958C716.952 139.433 716.826 138.8 716.826 138.059L716.826 137.39C716.826 136.61 716.955 135.952 717.212 135.417C717.469 134.882 717.819 134.478 718.261 134.204C718.703 133.931 719.204 133.794 719.765 133.794C720.325 133.794 720.821 133.924 721.252 134.185C721.684 134.445 722.022 134.84 722.268 135.37C722.513 135.899 722.635 136.572 722.635 137.39L722.635 138.059L723.48 136.821L715.964 136.821L715.964 138.172L724.342 138.172L724.342 137.517C724.342 136.476 724.159 135.563 723.794 134.778C723.428 133.992 722.904 133.38 722.222 132.941C721.54 132.502 720.724 132.283 719.774 132.283C718.83 132.283 718.006 132.512 717.303 132.97C716.599 133.429 716.055 134.065 715.67 134.88C715.285 135.695 715.092 136.642 715.092 137.72L715.092 137.729C715.092 138.82 715.284 139.768 715.669 140.573C716.053 141.377 716.603 141.999 717.317 142.439C718.032 142.878 718.887 143.098 719.882 143.098Z"/>
</g>
<g fill="#000000" opacity="1" stroke="none">
<path d="M869.736 119.231C870.526 119.231 871.234 119.098 871.859 118.834C872.485 118.569 872.98 118.2 873.344 117.727C873.708 117.254 873.89 116.709 873.89 116.092L873.89 116.074C873.89 115.327 873.656 114.73 873.187 114.285C872.718 113.84 871.984 113.496 870.985 113.253L869.366 112.863C868.762 112.716 868.323 112.525 868.051 112.289C867.779 112.053 867.643 111.757 867.643 111.402L867.643 111.385C867.643 111.076 867.734 110.805 867.916 110.573C868.097 110.341 868.348 110.159 868.667 110.028C868.987 109.897 869.354 109.832 869.769 109.832C870.406 109.832 870.919 109.966 871.309 110.236C871.699 110.506 871.944 110.858 872.044 111.293L872.047 111.309L873.705 111.309L873.703 111.279C873.634 110.708 873.429 110.207 873.088 109.777C872.748 109.347 872.295 109.013 871.73 108.774C871.165 108.535 870.514 108.416 869.777 108.416C869.038 108.416 868.375 108.547 867.79 108.811C867.204 109.075 866.744 109.437 866.408 109.896C866.072 110.355 865.904 110.878 865.904 111.463L865.904 111.473C865.904 112.222 866.136 112.824 866.6 113.278C867.064 113.732 867.784 114.075 868.761 114.308L870.387 114.699C871.021 114.852 871.474 115.05 871.745 115.294C872.016 115.538 872.152 115.839 872.152 116.199L872.152 116.216C872.152 116.532 872.051 116.81 871.851 117.049C871.65 117.289 871.373 117.476 871.021 117.612C870.668 117.747 870.255 117.815 869.783 117.815C869.108 117.815 868.566 117.679 868.157 117.409C867.748 117.138 867.476 116.776 867.342 116.323L867.338 116.3L865.609 116.3L865.611 116.32C865.678 116.906 865.888 117.417 866.244 117.853C866.599 118.288 867.074 118.627 867.668 118.869C868.262 119.11 868.952 119.231 869.736 119.231Z"/>
<path d="M879.432 119.149C879.601 119.149 879.767 119.139 879.931 119.121C880.094 119.102 880.251 119.081 880.399 119.058L880.399 117.629C880.263 117.64 880.143 117.65 880.039 117.657C879.934 117.664 879.813 117.668 879.674 117.668C879.148 117.668 878.768 117.542 878.534 117.29C878.3 117.039 878.183 116.613 878.183 116.013L878.183 110.01L880.399 110.01L880.399 108.603L878.183 108.603L878.183 105.874L876.425 105.874L876.425 108.603L874.806 108.603L874.806 110.01L876.425 110.01L876.425 116.343C876.425 117.338 876.665 118.054 877.144 118.492C877.624 118.93 878.386 119.149 879.432 119.149Z"/>
<path d="M882.319 119.043L884.018 119.043L884.018 112.579C884.018 112.065 884.13 111.618 884.353 111.238C884.577 110.857 884.887 110.562 885.283 110.352C885.679 110.142 886.135 110.037 886.65 110.037C886.844 110.037 887.024 110.045 887.19 110.062C887.356 110.079 887.513 110.103 887.663 110.134L887.663 108.484C887.583 108.471 887.468 108.456 887.318 108.44C887.167 108.424 887.012 108.416 886.853 108.416C886.175 108.416 885.603 108.573 885.137 108.888C884.671 109.204 884.34 109.642 884.146 110.203L884.018 110.203L884.018 108.603L882.319 108.603L882.319 119.043Z"/>
<path d="M893.102 119.231C894.089 119.231 894.942 119.012 895.66 118.575C896.378 118.138 896.934 117.515 897.328 116.708C897.722 115.9 897.919 114.941 897.919 113.831L897.919 113.811C897.919 112.696 897.722 111.734 897.328 110.927C896.934 110.121 896.377 109.5 895.659 109.066C894.94 108.632 894.087 108.416 893.1 108.416C892.119 108.416 891.268 108.632 890.547 109.066C889.825 109.5 889.268 110.121 888.874 110.927C888.48 111.734 888.283 112.696 888.283 113.811L888.283 113.831C888.283 114.94 888.48 115.898 888.874 116.707C889.268 117.515 889.825 118.138 890.547 118.575C891.268 119.012 892.12 119.231 893.102 119.231ZM893.104 117.727C892.456 117.727 891.902 117.573 891.444 117.264C890.985 116.955 890.634 116.511 890.389 115.93C890.144 115.35 890.021 114.65 890.021 113.831L890.021 113.811C890.021 112.987 890.144 112.285 890.389 111.706C890.634 111.127 890.985 110.685 891.444 110.379C891.902 110.073 892.454 109.919 893.1 109.919C893.748 109.919 894.302 110.072 894.76 110.378C895.219 110.683 895.57 111.125 895.814 111.705C896.058 112.285 896.18 112.987 896.18 113.811L896.18 113.831C896.18 114.65 896.058 115.35 895.814 115.93C895.57 116.511 895.219 116.955 894.763 117.264C894.306 117.573 893.753 117.727 893.104 117.727Z"/>
<path d="M899.887 119.043L901.586 119.043L901.586 112.872C901.586 112.263 901.698 111.739 901.921 111.299C902.144 110.859 902.459 110.52 902.866 110.28C903.273 110.039 903.753 109.919 904.307 109.919C905.133 109.919 905.745 110.147 906.142 110.601C906.539 111.055 906.738 111.743 906.738 112.664L906.738 119.043L908.437 119.043L908.437 112.28C908.437 111.051 908.122 110.1 907.492 109.426C906.862 108.752 905.963 108.416 904.795 108.416C904.022 108.416 903.382 108.57 902.876 108.879C902.37 109.189 901.983 109.613 901.715 110.153L901.586 110.153L901.586 108.603L899.887 108.603L899.887 119.043Z"/>
<path d="M915.166 122.731C916.114 122.731 916.936 122.572 917.631 122.255C918.327 121.938 918.863 121.489 919.24 120.909C919.617 120.328 919.806 119.647 919.806 118.864L919.806 108.603L918.106 108.603L918.106 110.337L918.008 110.337C917.794 109.944 917.527 109.605 917.207 109.319C916.886 109.032 916.519 108.81 916.105 108.652C915.692 108.494 915.239 108.416 914.747 108.416C913.843 108.416 913.06 108.634 912.4 109.071C911.739 109.508 911.227 110.111 910.864 110.879C910.501 111.647 910.319 112.531 910.319 113.531L910.319 113.548C910.319 114.548 910.499 115.432 910.858 116.199C911.216 116.966 911.725 117.566 912.383 117.999C913.04 118.432 913.815 118.648 914.708 118.648C915.191 118.648 915.641 118.577 916.057 118.434C916.473 118.291 916.845 118.083 917.174 117.809C917.503 117.536 917.776 117.208 917.993 116.825L918.121 116.825L918.121 118.758C918.121 119.536 917.861 120.142 917.34 120.576C916.82 121.01 916.094 121.227 915.162 121.227C914.422 121.227 913.823 121.104 913.365 120.857C912.907 120.611 912.624 120.293 912.516 119.904L912.499 119.875L910.753 119.875L910.743 119.904C910.838 120.46 911.074 120.951 911.45 121.378C911.826 121.805 912.329 122.137 912.958 122.374C913.587 122.612 914.323 122.731 915.166 122.731ZM915.079 117.144C914.44 117.144 913.896 116.993 913.446 116.69C912.996 116.388 912.652 115.967 912.414 115.427C912.176 114.888 912.058 114.262 912.058 113.548L912.058 113.531C912.058 112.821 912.176 112.194 912.414 111.65C912.652 111.107 912.996 110.682 913.446 110.377C913.896 110.072 914.44 109.919 915.079 109.919C915.712 109.919 916.257 110.072 916.716 110.378C917.174 110.684 917.528 111.109 917.777 111.653C918.027 112.196 918.151 112.822 918.151 113.531L918.151 113.548C918.151 114.257 918.027 114.882 917.777 115.422C917.528 115.962 917.175 116.384 916.717 116.688C916.259 116.992 915.713 117.144 915.079 117.144Z"/>
<path d="M922.387 119.043L924.087 119.043L924.087 104.481L922.387 104.481L922.387 119.043Z"/>
<path d="M927.587 122.67C928.209 122.67 928.733 122.578 929.159 122.395C929.585 122.213 929.953 121.904 930.265 121.469C930.577 121.034 930.873 120.439 931.154 119.685L935.231 108.603L933.444 108.603L930.28 118.122L930.88 117.217L930.149 117.217L930.749 118.122L927.581 108.603L925.764 108.603L929.631 119.053L929.433 119.666C929.241 120.264 928.989 120.68 928.677 120.913C928.364 121.147 927.96 121.264 927.465 121.264C927.351 121.264 927.235 121.26 927.118 121.251C927.002 121.243 926.895 121.23 926.799 121.212L926.799 122.607C926.914 122.626 927.044 122.641 927.188 122.653C927.331 122.664 927.464 122.67 927.587 122.67Z"/>
<path d="M879.537 143.098C880.008 143.098 880.443 143.029 880.842 142.891C881.242 142.753 881.6 142.552 881.918 142.287C882.236 142.023 882.503 141.705 882.718 141.334L882.847 141.334L882.847 142.91L884.546 142.91L884.546 135.747C884.546 135.03 884.39 134.413 884.079 133.895C883.767 133.377 883.315 132.979 882.722 132.7C882.13 132.422 881.411 132.283 880.565 132.283C879.806 132.283 879.134 132.403 878.549 132.643C877.965 132.884 877.493 133.215 877.135 133.639C876.776 134.062 876.556 134.551 876.474 135.106L876.464 135.176L878.15 135.176L878.162 135.133C878.289 134.712 878.554 134.383 878.957 134.144C879.36 133.906 879.88 133.787 880.516 133.787C881.285 133.787 881.866 133.959 882.258 134.304C882.651 134.649 882.847 135.143 882.847 135.786L882.847 139.001C882.847 139.499 882.719 139.946 882.463 140.341C882.208 140.737 881.858 141.049 881.414 141.279C880.97 141.509 880.464 141.623 879.895 141.623C879.283 141.623 878.78 141.476 878.385 141.182C877.99 140.889 877.792 140.48 877.792 139.957L877.792 139.937C877.792 139.427 877.977 139.029 878.346 138.743C878.715 138.456 879.286 138.291 880.057 138.247L883.696 138.017L883.696 136.669L879.855 136.899C878.645 136.969 877.708 137.268 877.047 137.795C876.385 138.323 876.054 139.047 876.054 139.967L876.054 139.987C876.054 140.619 876.205 141.168 876.508 141.635C876.811 142.103 877.226 142.463 877.751 142.717C878.276 142.971 878.871 143.098 879.537 143.098Z"/>
<path d="M891.305 146.598C892.253 146.598 893.075 146.439 893.77 146.122C894.465 145.805 895.002 145.356 895.379 144.776C895.756 144.196 895.944 143.514 895.944 142.731L895.944 132.471L894.245 132.471L894.245 134.204L894.146 134.204C893.933 133.812 893.666 133.472 893.345 133.186C893.024 132.899 892.657 132.677 892.244 132.519C891.83 132.362 891.377 132.283 890.886 132.283C889.982 132.283 889.199 132.501 888.538 132.938C887.877 133.375 887.365 133.978 887.002 134.746C886.639 135.514 886.458 136.398 886.458 137.398L886.458 137.415C886.458 138.415 886.637 139.299 886.996 140.066C887.355 140.833 887.863 141.433 888.521 141.866C889.179 142.299 889.954 142.516 890.847 142.516C891.33 142.516 891.78 142.444 892.195 142.301C892.611 142.158 892.984 141.95 893.313 141.676C893.642 141.403 893.914 141.075 894.131 140.692L894.26 140.692L894.26 142.625C894.26 143.403 894 144.009 893.479 144.443C892.958 144.877 892.232 145.094 891.3 145.094C890.561 145.094 889.962 144.971 889.504 144.725C889.046 144.478 888.763 144.16 888.655 143.771L888.638 143.743L886.892 143.743L886.881 143.771C886.977 144.327 887.213 144.818 887.589 145.245C887.965 145.672 888.467 146.004 889.096 146.242C889.726 146.479 890.462 146.598 891.305 146.598ZM891.218 141.012C890.579 141.012 890.035 140.86 889.584 140.558C889.134 140.255 888.79 139.834 888.553 139.295C888.315 138.755 888.196 138.129 888.196 137.415L888.196 137.398C888.196 136.688 888.315 136.061 888.553 135.517C888.79 134.974 889.134 134.55 889.584 134.244C890.035 133.939 890.579 133.787 891.218 133.787C891.85 133.787 892.396 133.94 892.854 134.246C893.313 134.552 893.667 134.976 893.916 135.52C894.165 136.063 894.29 136.689 894.29 137.398L894.29 137.415C894.29 138.124 894.165 138.749 893.916 139.289C893.667 139.829 893.313 140.251 892.856 140.555C892.398 140.86 891.852 141.012 891.218 141.012Z"/>
<path d="M898.43 142.91L900.13 142.91L900.13 136.447C900.13 135.932 900.242 135.485 900.465 135.105C900.689 134.725 900.999 134.429 901.395 134.219C901.791 134.009 902.247 133.904 902.762 133.904C902.956 133.904 903.136 133.912 903.302 133.929C903.468 133.946 903.625 133.97 903.775 134.001L903.775 132.351C903.695 132.338 903.58 132.323 903.429 132.307C903.279 132.291 903.124 132.283 902.965 132.283C902.287 132.283 901.715 132.44 901.249 132.756C900.783 133.071 900.452 133.509 900.258 134.07L900.13 134.07L900.13 132.471L898.43 132.471L898.43 142.91Z"/>
<path d="M909.185 143.098C909.788 143.098 910.336 143.019 910.828 142.861C911.321 142.703 911.75 142.488 912.116 142.216C912.483 141.945 912.782 141.638 913.015 141.296C913.247 140.953 913.408 140.596 913.498 140.224L913.518 140.142L911.825 140.142L911.788 140.23C911.696 140.458 911.536 140.676 911.308 140.884C911.08 141.092 910.792 141.261 910.443 141.391C910.095 141.522 909.688 141.587 909.224 141.587C908.592 141.587 908.044 141.447 907.58 141.166C907.116 140.886 906.758 140.484 906.506 139.958C906.254 139.433 906.129 138.8 906.129 138.059L906.129 137.39C906.129 136.61 906.257 135.952 906.515 135.417C906.772 134.882 907.122 134.478 907.564 134.204C908.006 133.931 908.507 133.794 909.067 133.794C909.628 133.794 910.124 133.924 910.555 134.185C910.987 134.445 911.325 134.84 911.57 135.37C911.815 135.899 911.938 136.572 911.938 137.39L911.938 138.059L912.782 136.821L905.267 136.821L905.267 138.172L913.645 138.172L913.645 137.517C913.645 136.476 913.462 135.563 913.096 134.778C912.731 133.992 912.207 133.38 911.525 132.941C910.842 132.502 910.027 132.283 909.077 132.283C908.133 132.283 907.309 132.512 906.605 132.97C905.902 133.429 905.358 134.065 904.973 134.88C904.588 135.695 904.395 136.642 904.395 137.72L904.395 137.729C904.395 138.82 904.587 139.768 904.971 140.573C905.356 141.377 905.905 141.999 906.62 142.439C907.335 142.878 908.19 143.098 909.185 143.098Z"/>
<path d="M919.882 143.098C920.485 143.098 921.033 143.019 921.526 142.861C922.018 142.703 922.448 142.488 922.814 142.216C923.18 141.945 923.479 141.638 923.712 141.296C923.945 140.953 924.106 140.596 924.195 140.224L924.215 140.142L922.523 140.142L922.486 140.23C922.393 140.458 922.233 140.676 922.005 140.884C921.777 141.092 921.489 141.261 921.14 141.391C920.792 141.522 920.386 141.587 919.921 141.587C919.289 141.587 918.741 141.447 918.277 141.166C917.813 140.886 917.455 140.484 917.203 139.958C916.952 139.433 916.826 138.8 916.826 138.059L916.826 137.39C916.826 136.61 916.955 135.952 917.212 135.417C917.469 134.882 917.819 134.478 918.261 134.204C918.703 133.931 919.204 133.794 919.765 133.794C920.325 133.794 920.821 133.924 921.252 134.185C921.684 134.445 922.022 134.84 922.268 135.37C922.513 135.899 922.635 136.572 922.635 137.39L922.635 138.059L923.48 136.821L915.964 136.821L915.964 138.172L924.342 138.172L924.342 137.517C924.342 136.476 924.159 135.563 923.794 134.778C923.428 133.992 922.904 133.38 922.222 132.941C921.54 132.502 920.724 132.283 919.774 132.283C918.83 132.283 918.006 132.512 917.303 132.97C916.599 133.429 916.055 134.065 915.67 134.88C915.285 135.695 915.092 136.642 915.092 137.72L915.092 137.729C915.092 138.82 915.284 139.768 915.669 140.573C916.053 141.377 916.603 141.999 917.317 142.439C918.032 142.878 918.887 143.098 919.882 143.098Z"/>
</g>
<g opacity="1">
<use fill="#ffffff" fill-rule="nonzero" stroke="none" xlink:href="#Fill"/>
<mask height="25" id="StrokeMask" maskUnits="userSpaceOnUse" width="25" x="87.5" y="69.837">
<rect fill="#ffffff" height="25" stroke="none" width="25" x="87.5" y="69.837"/>
<use fill="#000000" fill-rule="evenodd" stroke="none" xlink:href="#Fill"/>
</mask>
<use fill="none" mask="url(#StrokeMask)" stroke="#000000" stroke-linecap="butt" stroke-linejoin="round" stroke-width="10" xlink:href="#Fill"/>
</g>
<g opacity="1">
<use fill="#ffffff" fill-rule="nonzero" stroke="none" xlink:href="#Fill_2"/>
<mask height="25" id="StrokeMask_2" maskUnits="userSpaceOnUse" width="25" x="287.5" y="69.837">
<rect fill="#ffffff" height="25" stroke="none" width="25" x="287.5" y="69.837"/>
<use fill="#000000" fill-rule="evenodd" stroke="none" xlink:href="#Fill_2"/>
</mask>
<use fill="none" mask="url(#StrokeMask_2)" stroke="#000000" stroke-linecap="butt" stroke-linejoin="round" stroke-width="10" xlink:href="#Fill_2"/>
</g>
<g opacity="1">
<use fill="#ffffff" fill-rule="nonzero" stroke="none" xlink:href="#Fill_3"/>
<mask height="25" id="StrokeMask_3" maskUnits="userSpaceOnUse" width="25" x="487.5" y="69.837">
<rect fill="#ffffff" height="25" stroke="none" width="25" x="487.5" y="69.837"/>
<use fill="#000000" fill-rule="evenodd" stroke="none" xlink:href="#Fill_3"/>
</mask>
<use fill="none" mask="url(#StrokeMask_3)" stroke="#000000" stroke-linecap="butt" stroke-linejoin="round" stroke-width="10" xlink:href="#Fill_3"/>
</g>
<g opacity="1">
<use fill="#ffffff" fill-rule="nonzero" stroke="none" xlink:href="#Fill_4"/>
<mask height="25" id="StrokeMask_4" maskUnits="userSpaceOnUse" width="25" x="687.5" y="69.837">
<rect fill="#ffffff" height="25" stroke="none" width="25" x="687.5" y="69.837"/>
<use fill="#000000" fill-rule="evenodd" stroke="none" xlink:href="#Fill_4"/>
</mask>
<use fill="none" mask="url(#StrokeMask_4)" stroke="#000000" stroke-linecap="butt" stroke-linejoin="round" stroke-width="10" xlink:href="#Fill_4"/>
</g>
<g opacity="1">
<use fill="#ffffff" fill-rule="nonzero" stroke="none" xlink:href="#Fill_5"/>
<mask height="25" id="StrokeMask_5" maskUnits="userSpaceOnUse" width="25" x="887.5" y="69.837">
<rect fill="#ffffff" height="25" stroke="none" width="25" x="887.5" y="69.837"/>
<use fill="#000000" fill-rule="evenodd" stroke="none" xlink:href="#Fill_5"/>
</mask>
<use fill="none" mask="url(#StrokeMask_5)" stroke="#000000" stroke-linecap="butt" stroke-linejoin="round" stroke-width="10" xlink:href="#Fill_5"/>
</g>
</g>
</svg>
